<?xml version="1.0" encoding="utf-8"?>
<!-- Generator: Adobe Illustrator 24.0.3, SVG Export Plug-In . SVG Version: 6.00 Build 0)  -->
<svg version="1.1" id="Layer_1" xmlns="http://www.w3.org/2000/svg" xmlns:xlink="http://www.w3.org/1999/xlink" x="0px" y="0px"
	 viewBox="0 0 612 144" style="enable-background:new 0 0 612 144;" xml:space="preserve">
<style type="text/css">
	.st0{fill:#FFFFFF;}
	.st1{fill:#8D8C8A;}
</style>
<g>
	<path class="st0" d="M95.52,85.68h39.24v39.24H95.52V85.68z M95.52,85.68"/>
	<path class="st0" d="M31.74,86.67h43.18v43.18H31.74V86.67z M31.74,86.67"/>
	<path class="st0" d="M73.11,12.86v50.41H22.7V12.86H73.11z M73.11,12.86"/>
	<path class="st1" d="M78.99,69.15H52.08l-6.73-1.35L22.7,63.27h50.41L78.99,69.15z M78.99,69.15"/>
	<path class="st1" d="M78.99,42.24v26.91l-5.88-5.88V12.86l4.53,22.66L78.99,42.24z M78.99,42.24"/>
	<path class="st1" d="M52.08,82.6h26.91l-4.07,4.07H31.74l13.61-2.72L52.08,82.6z M52.08,82.6"/>
	<path class="st1" d="M92.44,109.51V82.6l3.08,3.08v39.24l-1.74-8.68L92.44,109.51z M92.44,109.51"/>
	<path class="st1" d="M92.44,82.6h26.91l6.73,1.34l8.68,1.74H95.52L92.44,82.6z M92.44,82.6"/>
	<path class="st1" d="M95.78,25.54v40.26l-3.34,3.34V42.24l1.35-6.73L95.78,25.54z M95.78,25.54"/>
	<path class="st1" d="M95.78,65.81h40.27l-9.97,1.99l-6.73,1.35H92.44L95.78,65.81z M95.78,65.81"/>
	<path class="st1" d="M78.99,82.6v26.91l-1.35,6.73l-2.72,13.61V86.67L78.99,82.6z M78.99,82.6"/>
	<path class="st0" d="M85.71,116.24V75.88h40.36v8.07l-6.73-1.34H92.44v26.91l1.35,6.73H85.71z M85.71,116.24"/>
	<path class="st0" d="M85.71,75.88H45.35V67.8l6.73,1.35h26.91V42.24l-1.35-6.73h8.07V75.88z M85.71,75.88"/>
	<path class="st0" d="M85.71,116.24h-8.07l1.35-6.73V82.6H52.08l-6.73,1.34v-8.07h40.36V116.24z M85.71,116.24"/>
	<path class="st0" d="M95.78,25.54h40.27v40.26H95.78V25.54z M95.78,25.54"/>
	<path class="st0" d="M85.71,35.51h8.07l-1.35,6.73v26.91h26.91l6.73-1.35v8.07H85.71V35.51z M85.71,35.51"/>
</g>
<g>
	<path d="M150.86,66.27h2.34v19.57h-2.34V66.27z"/>
	<path d="M163.72,65.6h0.5l14.29,15.82V66.27h2.11v20.24h-0.5l-14.29-15.82v15.15h-2.11V65.6z"/>
	<path d="M187.91,66.27h2.53l6.87,15.59l7.42-15.59h2.31l-9.65,20.24h-0.42L187.91,66.27z"/>
	<path d="M214.62,66.27h2.34v19.57h-2.34V66.27z"/>
	<path d="M237.66,69.5c-0.28-0.19-0.53-0.36-0.75-0.53c-1.33-0.86-2.75-1.31-4.25-1.31c-2.36,0-3.64,1-3.64,2.89
		c0,0.89,0.33,1.64,0.89,2.17c0.72,0.64,1.28,0.95,3.45,1.86c2.31,0.97,3.03,1.33,3.95,2.08c1.22,1,1.89,2.53,1.89,4.31
		c0,3.42-2.56,5.53-6.7,5.53c-2.03,0-3.92-0.53-5.75-1.58l-0.28-2.53c2.03,1.39,4.03,2.06,6.03,2.06c2.64,0,4.36-1.39,4.36-3.53
		c0-1.03-0.44-1.95-1.22-2.56c-0.64-0.47-1.06-0.69-3.31-1.72c-2.53-1.17-3.14-1.5-3.95-2.14c-1.08-0.89-1.7-2.28-1.7-3.86
		c0-3.11,2.28-5.03,6-5.03c1.75,0,3,0.33,4.98,1.33V69.5z"/>
	<path d="M248.78,66.27h2.34v19.57h-2.34V66.27z"/>
	<path d="M261.65,66.27h6.42c4.23,0,6.25,1.5,6.25,4.61c0,2.36-1.2,3.92-3.42,4.45v0.06c2.61,0.61,3.89,2.14,3.89,4.64
		c0,3.64-2.72,5.81-7.34,5.81h-5.81V66.27z M263.99,74.61h1.75c1.75,0,2.92-0.14,3.89-0.42c1.5-0.47,2.36-1.58,2.36-3.03
		c0-1-0.33-1.75-0.97-2.25c-0.92-0.7-1.92-0.86-4.98-0.86h-2.06V74.61z M263.99,84.06h2.47c4.06,0,6-1.25,6-3.92
		c0-1-0.28-1.78-0.86-2.39c-1-1-2.45-1.36-5.64-1.36h-1.97V84.06z"/>
	<path d="M284.33,66.27h2.33v17.51h9.9v2.06h-12.23V66.27z"/>
	<path d="M305.18,66.27h11.45v2.06h-9.12v6.28h7.95v2.06h-7.95v7.12h9.23v2.06h-11.56V66.27z"/>
	<path d="M354.13,69.72c-0.44-0.33-0.81-0.58-1.03-0.72c-1.33-0.83-3.14-1.33-4.84-1.33c-4.64,0-7.87,3.45-7.87,8.4
		c0,4.92,3.28,8.39,7.95,8.39c0.92,0,1.86-0.14,2.81-0.42c1.45-0.44,2.09-0.83,3.47-2.06l-0.19,2.97c-0.36,0.17-0.61,0.31-0.78,0.39
		c-1.75,0.81-3.42,1.17-5.31,1.17c-6.14,0-10.29-4.2-10.29-10.4c0-6.14,4.2-10.51,10.12-10.51c0.97,0,1.92,0.11,2.81,0.33
		c1.36,0.31,1.97,0.56,3.34,1.42L354.13,69.72z"/>
	<path d="M364.05,66.27h2.33v19.57h-2.33V66.27z"/>
	<path d="M392.18,66.27v2.06h-7.42v17.51h-2.33V68.33H375v-2.06H392.18z"/>
	<path d="M405.69,85.84v-8.51l-8.23-11.06h2.78l6.7,9.06l7.06-9.06h2.64l-8.62,11.06v8.51H405.69z"/>
	<path d="M443.44,66.27c6.7,0,11.04,3.84,11.04,9.79c0,5.95-4.34,9.78-11.04,9.78h-5.81V66.27H443.44z M439.96,83.78h3.2
		c5.42,0,8.98-3.06,8.98-7.73c0-4.67-3.56-7.73-8.98-7.73h-3.2V83.78z"/>
	<path d="M463.62,66.27h11.45v2.06h-9.12v6.28h7.95v2.06h-7.95v7.12h9.23v2.06h-11.56V66.27z"/>
	<path d="M494.61,69.5c-0.28-0.19-0.53-0.36-0.75-0.53c-1.33-0.86-2.75-1.31-4.25-1.31c-2.36,0-3.64,1-3.64,2.89
		c0,0.89,0.33,1.64,0.89,2.17c0.72,0.64,1.28,0.95,3.45,1.86c2.31,0.97,3.03,1.33,3.95,2.08c1.22,1,1.89,2.53,1.89,4.31
		c0,3.42-2.56,5.53-6.7,5.53c-2.03,0-3.92-0.53-5.75-1.58l-0.28-2.53c2.03,1.39,4.03,2.06,6.03,2.06c2.64,0,4.36-1.39,4.36-3.53
		c0-1.03-0.45-1.95-1.22-2.56c-0.64-0.47-1.06-0.69-3.31-1.72c-2.53-1.17-3.14-1.5-3.95-2.14c-1.08-0.89-1.7-2.28-1.7-3.86
		c0-3.11,2.28-5.03,6-5.03c1.75,0,3,0.33,4.98,1.33V69.5z"/>
	<path d="M505.73,66.27h2.33v19.57h-2.33V66.27z"/>
	<path d="M534.27,69.75c-0.36-0.25-0.69-0.44-1-0.61c-1.64-0.97-3.34-1.47-5.12-1.47c-4.86,0-8.39,3.64-8.39,8.67
		c0,4.86,3.25,8.12,8.14,8.12c1.86,0,3.31-0.39,5.09-1.36v-4.98h-6.09v-2.06h8.42v8.48c-0.45,0.22-0.78,0.39-1,0.47
		c-2.08,0.95-4.59,1.5-6.84,1.5c-6.14,0-10.06-3.98-10.06-10.2c0-6.23,4.39-10.7,10.54-10.7c1,0,2.03,0.14,3.06,0.36
		c1.36,0.33,1.97,0.58,3.42,1.33L534.27,69.75z"/>
	<path d="M545.2,65.6h0.5l14.29,15.82V66.27h2.11v20.24h-0.5l-14.29-15.82v15.15h-2.11V65.6z"/>
	<path d="M582.47,69.5c-0.28-0.19-0.53-0.36-0.75-0.53c-1.33-0.86-2.75-1.31-4.25-1.31c-2.36,0-3.64,1-3.64,2.89
		c0,0.89,0.33,1.64,0.89,2.17c0.72,0.64,1.28,0.95,3.45,1.86c2.31,0.97,3.03,1.33,3.95,2.08c1.22,1,1.89,2.53,1.89,4.31
		c0,3.42-2.56,5.53-6.7,5.53c-2.03,0-3.92-0.53-5.75-1.58l-0.28-2.53c2.03,1.39,4.03,2.06,6.03,2.06c2.64,0,4.36-1.39,4.36-3.53
		c0-1.03-0.45-1.95-1.22-2.56c-0.64-0.47-1.06-0.69-3.31-1.72c-2.53-1.17-3.14-1.5-3.95-2.14c-1.08-0.89-1.7-2.28-1.7-3.86
		c0-3.11,2.28-5.03,6-5.03c1.75,0,3,0.33,4.98,1.33V69.5z"/>
</g>
</svg>
