<svg xmlns="http://www.w3.org/2000/svg" width="1902.72" height="180.843" viewBox="0 0 1902.72 180.843">
  <g id="Layer_1" data-name="Layer 1">
    <path d="M148.18,177.721v-59.8c0-22.575-5.763-34.584-23.535-34.584-18.012,0-27.379,12.009-27.379,36.266v58.119H73.97v-59.8c0-22.816-5.764-34.584-23.537-34.584-18.011,0-27.378,12.249-27.378,36.266v58.119H0V63.644H23.055V75.893C31.7,66.285,40.587,61.482,54.277,61.482c15.61,0,29.539,6.243,36.5,21.135,11.048-16.811,24.737-21.135,37.946-21.135,25.458,0,42.509,15.851,42.509,51.636v64.6Z" style="fill: #d2a63b"/>
    <rect x="217.558" y="63.644" width="23.296" height="114.077" style="fill: #d2a63b"/>
    <rect x="217.558" y="14.43" width="23.496" height="23.496" style="fill: #495972"/>
    <path d="M368.691,177.721v-59.8c0-22.816-8.887-34.584-27.86-34.584-19.692,0-29.06,12.73-29.06,36.266v58.119H288.717V63.644h23.054V75.893c7.686-8.646,17.053-14.411,33.144-14.411,27.138,0,47.072,15.851,47.072,51.636v64.6Z" style="fill: #d2a63b"/>
    <path d="M528.274,177.721V164.272c-9.606,11.287-22.815,16.571-38.186,16.571-33.863,0-60.281-26.176-60.281-59.56,0-33.863,26.9-59.8,60.281-59.8,15.371,0,28.34,5.524,38.186,16.811V0H551.33V177.721ZM490.088,83.336c-21.375,0-37.465,16.811-37.465,37.947,0,21.375,16.09,37.946,37.465,37.946,21.856,0,37.706-17.292,37.706-37.946S511.7,83.336,490.088,83.336Z" style="fill: #d2a63b"/>
    <path d="M602.481,148.18a51.118,51.118,0,0,0,31.942,11.768c12.248,0,18.972-5.281,18.972-12.968,0-22.576-59.32-8.646-59.32-49.714,0-20.9,15.371-35.784,39.147-35.784,9.607,0,25.7,2.4,38.667,12.968L659.64,91.5a44.265,44.265,0,0,0-26.178-8.884c-11.528,0-16.571,5.763-16.571,12.008,0,21.614,59.08,9.847,59.08,50.915,0,21.854-16.572,35.3-42.268,35.3a72.074,72.074,0,0,1-43.71-14.89Z" style="fill: #d2a63b"/>
    <path d="M795.908,177.721v-59.8c0-22.816-8.886-34.584-27.86-34.584-19.692,0-29.058,12.73-29.058,36.266v58.119H715.933V0H738.99V75.893c7.684-8.646,17.051-14.411,33.142-14.411,27.138,0,47.072,15.851,47.072,51.636v64.6Z" style="fill: #d2a63b"/>
    <path d="M955.491,177.721V164.272c-9.606,11.287-22.815,16.571-38.186,16.571-33.862,0-60.28-26.176-60.28-59.56,0-33.863,26.9-59.8,60.28-59.8,15.371,0,28.34,5.524,38.186,16.811V63.644h23.056V177.721ZM917.305,83.336c-21.374,0-37.465,16.811-37.465,37.947,0,21.375,16.091,37.946,37.465,37.946,21.856,0,37.706-17.292,37.706-37.946S938.921,83.336,917.305,83.336Z" style="fill: #d2a63b"/>
    <path d="M1026.552,177.721V63.644h23.055V77.333c11.049-13.208,22.335-15.851,44.43-15.851v22.1c-37.7,0-44.43,15.37-44.43,35.065v59.079Z" style="fill: #d2a63b"/>
    <path d="M1140.314,128.969c3.122,17.53,17.533,30.979,36.986,30.979,12.488,0,24.737-5.522,31.941-15.608l16.331,12.487c-10.566,14.891-28.579,24.016-48.272,24.016-33.143,0-59.8-25.938-59.8-59.56,0-31.941,24.256-59.8,58.359-59.8,33.864,0,58.36,27.619,58.36,59.56a73.989,73.989,0,0,1-.48,7.927Zm70.369-18.254c-2.642-15.849-16.572-28.1-34.585-28.1-17.771,0-30.981,12.008-35.064,28.1Z" style="fill: #d2a63b"/>
    <path d="M1403.766,179.162a50.993,50.993,0,0,1-12.729,1.681c-18.733,0-30.261-11.287-30.261-32.182V0h23.057V141.456c0,12.249,2.881,17.773,14.169,17.773a52.442,52.442,0,0,0,5.764-.24Z" style="fill: #d2a63b"/>
    <path d="M1524.66,177.721V164.272c-9.606,11.287-22.815,16.571-38.186,16.571-33.862,0-60.28-26.176-60.28-59.56,0-33.863,26.9-59.8,60.28-59.8,15.371,0,28.34,5.524,38.186,16.811V63.644h23.056V177.721Zm-38.186-94.385c-21.374,0-37.465,16.811-37.465,37.947,0,21.375,16.091,37.946,37.465,37.946,21.856,0,37.706-17.292,37.706-37.946S1508.089,83.336,1486.474,83.336Z" style="fill: #d2a63b"/>
    <path d="M1595.721,177.721V0h23.057V78.293c9.606-11.287,22.815-16.811,38.186-16.811,33.382,0,60.28,25.938,60.28,59.8,0,33.384-26.418,59.56-60.28,59.56-15.371,0-28.58-5.284-38.186-16.571v13.449Zm61-18.492c21.615,0,37.706-16.571,37.706-37.946,0-21.136-16.091-37.947-37.465-37.947s-37.466,16.811-37.466,37.947C1619.5,141.937,1634.628,159.229,1656.723,159.229Z" style="fill: #d2a63b"/>
    <path d="M1758.813,148.18a51.12,51.12,0,0,0,31.942,11.768c12.248,0,18.972-5.281,18.972-12.968,0-22.576-59.319-8.646-59.319-49.714,0-20.9,15.37-35.784,39.146-35.784,9.607,0,25.7,2.4,38.667,12.968L1815.972,91.5a44.265,44.265,0,0,0-26.177-8.884c-11.529,0-16.572,5.763-16.572,12.008,0,21.614,59.08,9.847,59.08,50.915,0,21.854-16.571,35.3-42.268,35.3a72.076,72.076,0,0,1-43.71-14.89Z" style="fill: #d2a63b"/>
    <rect x="1873.062" y="148.009" width="29.658" height="29.658" style="fill: #495972"/>
  </g>
</svg>
