<?xml version="1.0" encoding="utf-8"?>
<!-- Generator: Adobe Illustrator 24.0.3, SVG Export Plug-In . SVG Version: 6.00 Build 0)  -->
<svg version="1.1" id="Layer_1" xmlns="http://www.w3.org/2000/svg" xmlns:xlink="http://www.w3.org/1999/xlink" x="0px" y="0px"
	 viewBox="0 0 576 288" style="enable-background:new 0 0 576 288;" xml:space="preserve">
<style type="text/css">
	.st0{fill-rule:evenodd;clip-rule:evenodd;fill:#637BA2;}
	.st1{fill-rule:evenodd;clip-rule:evenodd;fill:url(#SVGID_1_);}
	.st2{fill-rule:evenodd;clip-rule:evenodd;fill:url(#SVGID_2_);}
	.st3{fill-rule:evenodd;clip-rule:evenodd;fill:url(#SVGID_3_);}
	.st4{fill-rule:evenodd;clip-rule:evenodd;fill:url(#SVGID_4_);}
	.st5{fill-rule:evenodd;clip-rule:evenodd;fill:url(#SVGID_5_);}
	.st6{fill-rule:evenodd;clip-rule:evenodd;fill:url(#SVGID_6_);}
	.st7{fill-rule:evenodd;clip-rule:evenodd;fill:url(#SVGID_7_);}
	.st8{fill-rule:evenodd;clip-rule:evenodd;fill:url(#SVGID_8_);}
	.st9{fill-rule:evenodd;clip-rule:evenodd;fill:url(#SVGID_9_);}
	.st10{fill-rule:evenodd;clip-rule:evenodd;fill:url(#SVGID_10_);}
	.st11{fill-rule:evenodd;clip-rule:evenodd;fill:url(#SVGID_11_);}
	.st12{fill-rule:evenodd;clip-rule:evenodd;fill:url(#SVGID_12_);}
	.st13{fill-rule:evenodd;clip-rule:evenodd;fill:url(#SVGID_13_);}
	.st14{fill-rule:evenodd;clip-rule:evenodd;fill:url(#SVGID_14_);}
	.st15{fill-rule:evenodd;clip-rule:evenodd;fill:url(#SVGID_15_);}
	.st16{fill-rule:evenodd;clip-rule:evenodd;fill:url(#SVGID_16_);}
	.st17{fill-rule:evenodd;clip-rule:evenodd;fill:url(#SVGID_17_);}
	.st18{fill-rule:evenodd;clip-rule:evenodd;fill:url(#SVGID_18_);}
	.st19{fill-rule:evenodd;clip-rule:evenodd;fill:url(#SVGID_19_);}
	.st20{fill-rule:evenodd;clip-rule:evenodd;fill:url(#SVGID_20_);}
	.st21{fill-rule:evenodd;clip-rule:evenodd;fill:url(#SVGID_21_);}
	.st22{fill-rule:evenodd;clip-rule:evenodd;fill:url(#SVGID_22_);}
	.st23{fill-rule:evenodd;clip-rule:evenodd;fill:url(#SVGID_23_);}
	.st24{fill-rule:evenodd;clip-rule:evenodd;fill:url(#SVGID_24_);}
	.st25{fill-rule:evenodd;clip-rule:evenodd;fill:url(#SVGID_25_);}
	.st26{fill-rule:evenodd;clip-rule:evenodd;fill:url(#SVGID_26_);}
	.st27{fill-rule:evenodd;clip-rule:evenodd;fill:url(#SVGID_27_);}
	.st28{fill-rule:evenodd;clip-rule:evenodd;fill:url(#SVGID_28_);}
	.st29{fill-rule:evenodd;clip-rule:evenodd;fill:url(#SVGID_29_);}
	.st30{fill-rule:evenodd;clip-rule:evenodd;fill:url(#SVGID_30_);}
	.st31{fill-rule:evenodd;clip-rule:evenodd;fill:url(#SVGID_31_);}
	.st32{fill:#FFFFFF;}
	.st33{fill:#292663;}
</style>
<g>
	<path class="st0" d="M176.71,25.75c-0.04-1.86-0.74-1.86-1.35-2.92c-0.07-0.53-0.15-1.05-0.22-1.58c-0.69-1.9-2.14-2.91-2.25-5.39
		c0.65-0.85,2.73-5.11,3.37-5.4c0.75,0,1.5,0,2.25,0c1.62-1.66,7.57-0.58,8.54,1.57c2.19,3.26,0.68,9.51-1.12,11.91
		c-0.21,0.17-0.97,0.22-1.12,0.45c-0.4,0.61,0.04,0.9-0.45,1.35c-0.38,0.3-0.71,0.36-1.35,0.45c-0.2-0.28-3.03-1.95-3.37-2.02
		C179.15,24.84,177.62,25.58,176.71,25.75z"/>
	<radialGradient id="SVGID_1_" cx="188.1153" cy="133.081" r="111.1348" gradientUnits="userSpaceOnUse">
		<stop  offset="0.1668" style="stop-color:#11073E"/>
		<stop  offset="0.4929" style="stop-color:#292663"/>
		<stop  offset="0.9428" style="stop-color:#637BA2"/>
	</radialGradient>
	<path class="st1" d="M268.65,166.91c0.15,1.63,0.86,1.81,0.9,3.82c-0.61,0.3-1.15,0.66-1.57,1.13c-2.74,0.03-3.02-1.08-4.72-1.8
		c-0.6-0.08-1.2-0.15-1.8-0.22c-0.3-0.52-0.6-1.05-0.9-1.57c-2.4-1.47-5.79-1.64-8.54-2.7c-1.19-0.46-1.24-1.36-2.7-1.57
		c-1.17,1.09-2.46,1.79-3.82,2.7c-0.38,0.6-0.75,1.2-1.12,1.8c-1.7,0.94-3.68,0.67-4.05,2.92c0.45,0.6,0.26,1.51,0.67,2.25
		c0.03,0.04,2.43,2.67,2.47,2.7c0.91,0.58,1.73-0.25,2.7,0c0.87,0.22,2.29,0.65,3.15,0.89c0.14,4.2,3.18,5.44,3.37,9.45
		c-0.45,0.37-0.9,0.75-1.35,1.12c-2.12-0.46-4.4-1.53-5.62-2.93c-0.88-1.01-1.15-2.34-2.7-2.7c-0.31,0.29-0.4,0.31-0.9,0.45
		c-0.38-0.59-0.49-0.74-1.35-0.9c-1.17,1.91-0.26,1.77-0.9,4.05c-0.19,0.66-0.93,1.43-1.13,2.03c0,0.6,0,1.2,0,1.8
		c-0.64,2.11-1.07,3.92-1.12,6.52c1.18,0.83,2.93,3.6,1.58,5.62c-0.28,0.86-0.82,1.22-1.35,1.79c-0.64-0.1-1.98-0.09-2.25-0.22
		c-1.43-0.53-1.36-2.07-2.47-2.7c-1.14-0.64-2.81,0.06-3.37-1.12c0-0.68,0-1.35,0-2.02c-0.16-0.5-0.77-1.54-1.12-2.02
		c-1.01-1.4-3.04-2.21-4.05-3.6c-0.36-0.5-0.3-1.1-0.67-1.57c-0.38-0.48-1.06-0.3-1.57-0.67c-1-0.72-0.47-1.9-2.02-2.25
		c-0.36,1.19-0.17,1.97-1.8,2.02c-0.23-0.18-0.06-0.08-0.45-0.22c-0.52-1.43-1.05-2.85-1.57-4.27c-0.64-0.92-1.92-0.98-2.92-1.57
		c-2.42-1.44-5.7-4.08-9.89-2.47c-1.04,0.4-1.4,1.83-2.25,2.25c-0.3-0.07-0.6-0.15-0.9-0.23c-0.76,0.32-2.26,2.82-2.69,3.59
		c-0.68,1.22-0.49,2.08-0.22,3.15c-1.43,3.43,0.45,7.58-0.45,11.01c0.27,0.73,1.58,2.23,1.8,2.7c-0.07,0.9-0.15,1.79-0.23,2.7
		c0.45,0.45,0.9,0.89,1.35,1.35c-0.08,0.82-0.15,1.65-0.23,2.47c0.3,0.3,0.6,0.6,0.9,0.9c0.43,1.42-0.58,3-0.9,4.04
		c-0.32,1.04,0.4,1.62,0.45,2.7c-1.79,1.19-1.99,3.36-4.95,3.37c-0.79-0.78-1.35-0.54-2.7-0.45c-0.86-1.45-2.23-3.4-2.7-5.17
		c-0.39-1.49,1.41-1.94,0.9-4.04c-0.29-1.21-0.7-2.72-0.45-3.82c0.42-1.87-0.31-5.59-1.58-6.07c-0.66-0.44-2-0.63-2.92-0.68
		c-0.84,1.11-2.62,0.82-3.15,2.25c-0.25,0.38-0.02,0.97-0.23,1.57c-0.36,1.04-1.25,1.63-1.57,2.92c1.16,0.53,0.79,2.04,1.35,3.15
		c0.17,0.34,0.79,0.77,0.9,1.12c-0.07,0.68-0.15,1.35-0.22,2.02l0.45,0.9c0.28,1.29-0.76,1.6-0.45,2.7c0.3,0.3,0.6,0.6,0.9,0.9
		c0.49,1.08-0.19,1.98,0,2.92c0.12,0.58,0.55,0.99,0.68,1.8c-0.64,0.61-0.43,0.91-0.9,1.8c-0.3,0.23-0.6,0.45-0.9,0.67
		c-0.77,1.66,0.29,3.69,0,5.17c-0.13,0.68-0.82,2.1-0.45,3.37c0.31,1.08,1.48,1.57,1.8,2.47c0,1.35,0,2.7,0,4.04
		c-0.56,0.46-0.26,0.7-0.67,1.35c-0.52,0.38-1.05,0.75-1.58,1.12c-0.75-0.08-1.5-0.15-2.25-0.23c-0.39-1.09-1.12-1.12-1.35-2.47
		c0.47-0.69,3-6.81,2.7-7.87c-0.22-0.76-1.12-1.31-1.35-2.02c-0.64-2,0.83-2.91,0.9-4.72c-1.04-0.28-1.7-0.75-1.8-2.03
		c0.78-1.06-0.22-1.7,0.22-3.15c0.23-0.74,1.11-1.88,1.35-2.69c-0.15-1.5-0.3-3-0.45-4.5c0.46-2.1,1.07-3.33,1.13-5.62
		c-1.76,0.18-2.85,1.28-4.05,2.02c-1.17,0.73-2.59,1.42-3.37,2.47c-0.91,1.22-0.13,2.71-0.67,4.5c-0.28,0.91-1.12,2.34-1.35,3.37
		c0.08,0.98,0.15,1.95,0.23,2.93c-0.59,2.72-0.68,7.3-1.35,9.89c-0.97,3.75,2.13,10.23-2.7,10.34c-0.36-0.77-0.74-1.23-0.9-2.24
		c1.86-2.66,1.62-5.13,2.47-8.77c0-1.57,0-3.15,0-4.72c0.13-0.41,0.76-1.1,0.9-1.58c0.44-1.48,0.23-2.84,0.23-4.05
		c0-0.21,0.62-0.96,0.67-1.12c-0.08-1.65-0.15-3.3-0.23-4.94c0.08-1.06,0.98-2.72,0.45-4.27c-0.46-1.34-2.07-2.19-2.7-3.37
		c-1.63-3.11-0.52-6.57-5.4-6.52c-0.34-0.16-0.03-0.03-0.67,0c-0.15,0.77-0.68,1.4-0.45,2.47c0.08,0.36,0.7,0.86,0.45,1.57
		c-0.18,0.53-1.16,1.23-1.35,1.8c0.07,0.45,0.15,0.9,0.23,1.35c-0.37,1.41-2.78,4.56-4.5,4.72c-0.32-0.14-2.66,0.64-4.27,0.67
		c-0.99-1.5-1.72-2.76-2.02-5.17c2-1.31,2.06-3.56,3.37-5.62c0.33-0.53,1.54-0.85,1.79-1.35c0-0.67,0-1.35,0-2.02
		c-0.6-0.45-1.2-0.9-1.79-1.35c-2.12,0.24-4.66,0.87-5.62,2.25c-0.15,0.45-0.3,0.9-0.45,1.35c-0.67,0.52-1.35,1.05-2.03,1.57
		c-0.55,0.86-0.33,2.12-0.9,2.93l-2.25,1.79c-0.38,0-0.75,0-1.12,0c-0.3,0.83-0.6,1.65-0.9,2.48c-0.38,0.08-0.75,0.15-1.12,0.23
		c-0.8,0.57-1.18,1.91-2.03,2.47c-0.64,0.43-1.17,0.13-2.02,0.45c-1.33,0.5-1.52,1.65-3.37,1.8c-1.35-0.85-2.65,0.64-4.04,0.22
		c-0.33-0.1-0.86-0.8-1.13-0.9c-0.78-0.3-1.51,0.05-2.02,0c-0.25-0.8-0.84-1.15-1.12-1.8c-0.51-1.15-0.32-2.5-0.9-3.59
		c-0.89-1.69-2.78-2.68-2.92-5.17c0.95-1.13,1.17-3.05,1.57-4.72c0.24-1.01-0.54-1.71,0-2.7c0.25-0.46,2.72-3.56,3.15-3.82
		c1.38-0.85,3.45-0.83,4.04-2.47c0.78-1.35,0.03-2.98,1.58-3.6c0.61-0.31,1.28,0.22,1.8,0c0.56-0.61,1.18-2.27,1.35-3.15
		c-0.89,0.32-1.31,0.24-1.8-0.45c-1.08-1.64-0.27-3.27-1.12-4.94c-0.55-1.07-2.15-0.91-3.15-1.58c-2.43-1.61-1.85-4.58-5.17-5.84
		c-0.02-0.57-0.03-0.83-0.23-1.12c-0.58-0.42-0.8-0.14-1.12-0.9c-0.61-0.78-0.89-1.53-0.9-2.92c-1.63,0.18-1.75,1.17-3.6,1.35
		c-0.12-0.36-0.18-0.54-0.22-1.13c0.86-0.45,2.11-0.79,2.47-1.79c0.2-0.29,0.2-0.56,0.23-1.13c-0.51-0.28-0.51-0.37-1.35-0.45
		c-0.38,0.43-0.32,0.37-1.13,0.45c-0.33-0.57-0.89-1.15-1.13-1.79c-0.07-0.53-0.15-1.05-0.22-1.58c-0.28-0.46-1.3-0.29-1.57-0.67
		c-0.22-0.3-0.15-1.81-0.23-2.03c-2.34-1.15-4.09-2.76-7.42-2.92c-0.55,0.89-0.95,1.15-2.47,1.12c-0.44-0.21-1.51,0.29-2.47,0
		c-0.17-0.05-0.73-0.64-0.9-0.67c-0.08,0-0.15,0-0.23,0c-0.15,0-0.3,0-0.45,0c-0.62,0.13-0.93,0.6-2.03,0.67
		c-0.58-1.08-0.92-1.4-2.7-1.35c-0.75,0.46-1.97,0.16-2.92,0.45c-1.77,0.52-4.34,1.24-6.52,1.57c-0.52,0.07-1.03-0.45-1.8-0.23
		c-2.74,0.81-4.48,2.52-7.42,2.02c0-0.15,0-0.3,0-0.45c-0.36-0.63,0.14-1.4,0.45-2.02c2.03-0.18,5.02,1,7.42,0.23
		c1.25-0.4,3.19-1.19,4.72-1.57c1.05,0,2.1,0,3.15,0c1.35-0.31,2.86-0.64,4.04-1.13c0.32-0.83-0.04-1.92,0.45-2.92
		c0.45-0.38,0.9-0.75,1.35-1.12c0.22-0.83,0.45-1.65,0.67-2.47c0.53-0.07,5-0.47,5.39-0.67c0.15-0.3,0.3-0.6,0.45-0.9
		c0.67,0,1.35,0,2.02,0c0.07-0.15,0.15-0.3,0.22-0.45c1.41-0.49,2.72,0.46,3.37,0.67c0.89,0.29,1.92-0.15,2.47-0.22
		c0.33-0.93,0.75-0.8,0.9-2.02c-2.18-0.76,0.94-3.08,1.12-4.28c0.04-0.3-0.82-2.46-0.9-3.37c2.77-2.55,1.73-3.46,2.25-6.74
		c-1.06-0.22-1.63-0.88-2.47-1.13c-0.75,0-1.5,0-2.25,0c-0.3-0.37-0.6-0.75-0.9-1.12c-0.73-0.51-1.69-0.43-2.25-1.13
		c-0.52-0.6-1.12-2.84-0.45-3.82c0.29-0.96,1.3-2.37,2.25-2.7c0.95-0.56,3.43,0.21,4.27,0.45c1.5,0.43,2.22-0.77,3.6-0.45
		c1.01,0.23,1.99,1.19,2.92,1.35c0.33,0.06,1.38-0.28,2.25-0.22c1.32-2.11,2.33-2.02,4.27-3.37c0.95-0.66,1.19-2.37,2.25-2.92
		c0.38-0.24,1.59-0.3,2.02-0.45c0.46-0.87,1.31-2.98,2.25-3.37c0.65-0.43,0.99-0.08,1.35-0.9c0.11-0.3-0.05-1.97,0-2.92
		c-0.47-0.24-1.12-0.12-1.8-0.45c-0.53-0.52-1.05-1.05-1.57-1.57c-0.45-0.08-0.9-0.15-1.35-0.23c-0.88-0.54-1.6-1.7-2.47-2.25
		c-0.52-0.15-1.05-0.3-1.57-0.45c-1.85-1.2-2.5-3.95-5.4-4.05c-0.5,0.84-0.97,1.67-2.25,1.8c-1.14-1.22-2.93-2.42-3.15-4.5
		c0.4-0.35,0.29-0.44,0.9-0.67c0.76-0.48,2.26,0.02,2.92,0c0.37-1.37,1.41-1.83,2.25-2.7c4.55,0.05,6.38,2.71,8.77,5.4
		c0.22-0.07,0.45-0.15,0.67-0.23c0.42-0.86,1.12-1.63,1.8-2.25c-0.17-5.12-5.61-5.05-6.07-9.44c0.18-0.26,0.17-0.38,0.23-0.9
		c0.77-0.45,1.11-0.67,2.47-0.68c1.08,0.98,4.18,3.95,6.52,3.37c0.37-0.09,1.36-0.58,1.8-0.67c1.21-0.26,2.52,0.19,3.59-0.67
		c0.2-0.29,0.2-0.55,0.23-1.12c-0.79-0.76-2.09-2.87-2.92-3.37c-0.3,0-0.6,0-0.9,0c0,0-2.22-2.43-2.25-2.48
		c-0.22-0.75-0.45-1.5-0.67-2.25c-0.68-1.07-1.48-0.54-1.57-2.47c1.18-1.34,0.86-2.31,3.6-2.25c0.74,1.14,2.14,1.84,2.92,2.92
		c0.52,0.72,0.21,1.34,0.67,2.25c0.68,0.52,1.35,1.05,2.03,1.57c0.07,0.45,0.15,0.9,0.22,1.35c0.52,0.22,1.05,0.45,1.57,0.67
		c0.07,0.45,0.15,0.9,0.23,1.35c0.41,0.89,2.14,1.91,3.37,2.03c0.69-1.3,1.14-2.21,3.15-2.25c0.41,0.38,3.22,1.73,3.82,1.8
		c0.19-0.41,0.16-1.04,0.45-1.57c0.38-0.71,1.22-0.65,1.57-1.57c-0.57-0.6-0.44-1.23-0.9-2.02c-0.55-0.95-2.02-1.43-2.47-2.47
		c-1.17-1.83-0.05-4.32-0.45-6.74c0-0.67,0-1.35,0-2.02c-0.35-0.77-1.67-1.58-2.02-2.47c-0.26-0.66,0.12-1.31-0.23-1.8
		c-0.41-0.59-1.43-0.86-1.8-1.57c-0.08-0.68-0.15-1.35-0.23-2.02c-0.77-0.96-2.22-0.67-2.7-2.02c-0.79-1.38,0.97-2.56,0.67-3.82
		c-0.39-1.67-2.13-3.68-2.47-5.62c-0.06-0.33,0.92-4.2,1.12-4.49c0.24-0.36,0.95-0.46,1.12-0.9c-0.07-0.9-0.15-1.8-0.22-2.7
		c-1.18-0.94-3.04-4.56-3.82-4.94c-0.6-0.3-1.36,0.17-1.8-0.23c-0.07-0.3-0.15-0.6-0.23-0.9c-0.84-1.13-2-1.14-4.05-1.12
		c-0.75-1.27-1.88-3.87-1.12-5.39c0.04-0.14,2.25-3.37,2.25-3.37c0.45,0,0.9,0,1.35,0c1.18,1.59,4.56,2.99,5.17,4.5
		c0.75,1.27-0.49,3.95,0.9,5.84c0.65,0.88,2.08,1.34,2.7,2.25c0.77,1.13,0.4,2.46,1.57,3.15c0.56,0.32,1.33,0.05,1.8,0.45
		c0.21,0.18,0.21,0.71,0.45,0.9c0.78,0.6,1.67,1.01,2.25,1.8c0.08,0,0.15,0,0.23,0c0.08,0.53,0.15,1.05,0.23,1.57
		c0.31,0.37,1.07,0.47,1.35,0.9c0.07,0.45,0.15,0.9,0.22,1.35c0.38,0.3,0.75,0.6,1.13,0.9c0.51,0.98-0.35,1.41,0,2.48
		c0.4,1.23,1.31,1.01,1.35,3.15c-0.61,0.77-0.88,2.31-0.9,3.6c0.37,0.39,0.34,0.88,0.67,1.35c0.46,0.63,1.45,0.77,1.8,1.57
		c0.08,0.82,0.15,1.65,0.23,2.47c0.33,0.67,1.8,0.92,2.25,1.57c1.41,2.04,3.33,6.01,3.37,9.22c0.54,0.34,2.86,1.31,3.15,1.57
		c0.62,0.56,0.7,1.45,1.57,1.8c1.15,0.46,2.34,0.19,3.37,0.67c0.74,0.34,1.42,1.29,2.25,1.57c0.53,0,1.05,0,1.58,0
		c0.56,0.25,1.49,1.14,2.25,1.35c1.2-0.08,2.4-0.15,3.6-0.23c0.34-0.56,0.51-0.51,0.67-1.35c-1.72-2-1.66-6.77-2.02-9.44
		c0.08-1.05,0.15-2.1,0.23-3.15c-1.05-4.06-2.66-7.71-2.7-12.58c1-0.65,1.51-0.93,3.37-0.9c0.42,0.9,1.31,1.85,1.57,2.7
		c0.48,1.51-0.84,2.08-0.45,3.37c0.15,0.07,0.3,0.15,0.45,0.22c0,0.08,0,0.15,0,0.23c0.21,1.15-0.58,1.29-0.45,2.25
		c0.07,0.53,0.57,1.23,0.45,2.02c-0.1,0.64-0.57,2.43-0.45,3.15c0.06,0.37,0.59,1.25,0.67,1.57c0.07,1.65,0.15,3.3,0.23,4.94
		c0.3,0.3,0.6,0.6,0.9,0.9c-0.08,1.2-0.15,2.4-0.23,3.59c0.52,0.52,1.05,1.05,1.57,1.57c1.26,1.9,1.94,5.09,2.47,7.65
		c0.99,0.59,1.97,1.72,3.15,2.02c1.79,0.46,3.27-1.44,5.17-0.9c0.35,0.1,0.78,0.77,1.12,0.9c1.56,0.61,2.89,0.24,4.5,0.9
		c1.19,0.49,2.23,1.49,3.82,1.8c0,0,5.39-1.34,5.4-1.35c0.45-0.52,0.9-1.05,1.35-1.58c0.38,0,0.75,0,1.12,0
		c0.8-0.33,1.28-1.3,2.25-1.57c0.98-0.08,1.95-0.15,2.92-0.22c1.09-0.46,1.74-2.21,3.15-2.92c0.04-1.96,0.93-2.25,1.12-4.05
		c-0.47-0.46-0.47-1.04-0.9-1.57c-1.07-1.33-3.34-1.65-3.6-3.82c0.71-0.61,1.39-1.08,1.57-2.25c-2.27-2.19,1.24-5.56,1.12-8.77
		c-0.04-1.08,0.99-3.73,2.02-4.5c0.52-0.15,1.05-0.3,1.57-0.45c0.65-0.59,1.47-2.71,2.25-3.15c0.45,0,0.9,0,1.35,0
		c0.63-0.35,0.49-1.88,0.9-2.47c0.56-0.81,2.19-0.76,2.7-1.57c0.75-1.21,0.84-2.66,1.35-4.05c0.93-0.43,2.19-0.79,3.15-1.35
		c0.69-0.4,0.44-1.37,0.9-2.02c0.3-0.43,0.89-0.16,1.35-0.45c0.3-0.45,0.6-0.9,0.9-1.35c0.68-0.43,1.25,0.2,1.8,0
		c0.3-0.38,0.6-0.75,0.9-1.13c1.73-0.81,3.68,0.2,5.39-0.23c0.88-0.22,1.48-0.62,2.7-0.67c2.77,2.99,9.59,9.03,9.89,13.94
		c-1.78,1.35-0.52,5.55-1.57,7.64c-0.41,0.82-1.58,1.29-2.02,2.02c-0.81,1.34-0.91,2.93-1.8,4.27c-0.52,0.45-1.05,0.9-1.57,1.35
		c-0.43,0.84,0.39,2.12-0.23,3.15c-0.6,0.3-1.2,0.6-1.8,0.9c-0.6,1.72-1.2,3.45-1.8,5.17c-0.52,0.15-1.05,0.3-1.57,0.45
		c-0.01,1.41-0.39,1.89-0.67,2.92c-3.1,1.18-6.23,5.37-9.89,4.72c-0.22-1.1-0.43-1.54-1.8-1.57c-1.03,1.04-3.66,1.68-4.05,2.7
		c-1.2,1.64-0.67,5.84-1.35,8.09c-0.98,3.23-3.96,5.76-5.17,8.77c-0.71,1.76-0.23,3.78-0.23,5.62c1.17,0.64,1.98,1.48,3.6,1.57
		c1.39-1.05,4.88-1.47,6.52-2.47c1.38-0.84,0.36-2.5,2.7-2.69c0.58,0.67,1.62,0.47,2.02,1.35c0.17,0.27,0.03,0.22,0,0.9
		c-0.8,0.56-1.05,1.43-2.02,1.8c-0.38,0.16-1.33-0.42-2.03-0.22c-0.04,0.01-3.37,2.02-3.37,2.02c0,0.38,0,0.75,0,1.12
		c1.34,1.24,3.47,3.34,5.17,4.05c0.73,0.3,1.9,0.58,2.47,0.68c0.45-0.08,0.9-0.15,1.35-0.23c1.75,0.49,1.68,1.04,3.82,0.45
		c0.6,0,1.2,0,1.8,0c0.43-0.2,0.55-1.11,0.9-1.35c0.53-0.07,1.05-0.15,1.57-0.22c1.1-0.41,2.45-1.27,3.59-1.57
		c1.27-0.34,1.56,0.73,2.93,0.45c1-0.2,2.86-1.23,3.59-1.12c0.59,0.08,0.89,0.89,2.02,0.67c1.77-0.33,3.82-0.67,5.39-1.35
		c0.29-0.13,0.88-0.82,1.12-0.9c0.9-0.3,1.47,0.58,2.02,0.67c0.45-0.08,0.9-0.15,1.35-0.23c0.44-0.8,0.53-1.08,1.8-1.12l5.85-0.67
		c0.32,0.01,0.94,0.41,1.57,0.22c0.91-0.26,2.08-0.78,2.92-0.9c1.41-0.2,1.89,0.84,3.37,0.23c0.5-0.21,0.53-0.86,0.9-1.12
		c2.24-1.59,6.23-2.02,8.77-0.67c1.1,0.58,1.56,0.1,2.02,1.35c0.29,0.39,0.38,0.95,0.45,1.57c-1.73,0.85-1.84,2.02-4.5,2.02
		c-0.84,0.78-1.07-0.28-2.47,0c-1.59,0.32-2.88,1.38-4.95,0.67c-0.68-0.23-2.83-1.59-4.5-0.9c-0.3,0.3-0.6,0.6-0.9,0.9
		c-0.9,0.08-1.8,0.15-2.69,0.23c-0.5,0.18-1.05,0.95-1.57,1.13c-0.9,0-1.8,0-2.7,0c-0.37,0.37-0.75,0.75-1.12,1.12
		c-2.13,0.93-3.23-1.17-5.17-0.67c-1.79,0.45-3.67,1.08-5.84,1.57c-1.85,0.42-3.27-0.77-4.95,0c-0.6,0.28-1.04,1.33-1.8,1.57
		c-1.66,0.54-3.25-0.44-4.95-0.45c-0.55,1.02-1.4,1.1-1.57,2.47c1.78,1.21,2.14,3.35,4.94,3.6c0.39-0.45,0.48-0.42,1.35-0.45
		c1.28,1.83,5.33,1.91,5.62,4.5c0.76,0.92,0.27,2.1,0,3.15c-1.34,0.59-3.25,1.33-4.72,1.8c-0.6,0-1.2,0-1.8,0
		c-1.11,0.53-2.06,2.69-2.92,3.59c0.14,0.39,0.04,0.22,0.23,0.45c0.17,0.51,0.53,1.45,0.9,1.8c0.79,0.74,1.85,0.11,2.93,0.68
		c0.23,0.37,0.45,0.75,0.67,1.12c0.82,0.23,1.65,0.45,2.47,0.68c1.03,0.59,1.93,1.6,2.92,2.25c-0.14,0.4-0.04,0.22-0.22,0.45
		c-0.22,1-0.61,1.76-1.35,2.25c-2.22,1.72-4.07-0.68-5.62,0c-1.52,0.22-3.23,1.52-3.37,3.15c0.18,0.26,0.17,0.38,0.22,0.9
		c0.4,0.29,0.52,0.87,0.9,1.12c0.27,0.19,3.37,1.5,3.6,1.57c0.52,0,1.05,0,1.57,0c0.52,0.25,0.47,1.31,0.9,1.58
		c1.18,0.72,1.37-0.66,2.02,1.12c1.08,1.37-0.3,2.43-0.45,4.04c1.09,0.63,2.02,1.69,3.37,2.02c1.33,0.34,2.29-0.59,3.37,0.23
		c0.44,0.52,0.61,1.12,0.68,2.02c-0.23,0.07-0.45,0.15-0.68,0.23c-0.46,0.39-1.39,0.67-1.8,0.45c-2.17-0.47-1.55-2.55-4.27-2.7
		c-0.08,0.08-0.15,0.15-0.22,0.23c0.4,0.89,0.88,3.16,1.8,3.6C264.94,167.39,266.82,167,268.65,166.91z"/>
	<path class="st0" d="M158.73,37.44c0.45,0,0.9,0,1.35,0c0.8,1.28,2.11,2.35,2.7,3.82c0.5,1.24-0.54,2.43,0.23,3.59
		c0.43,0.65,1.61,0.96,2.02,1.57c0.64,0.97,0.51,2.17,1.13,3.15c1.2,1.9,2.76,4.13,3.82,6.07c0.49,0.89,3.48,5.67,3.15,6.07
		c0,0.08,0,0.15,0,0.23c-0.08-0.07-0.15-0.15-0.23-0.23c-1.94-1.41-2.73-3.75-4.05-5.84c-0.88-1.42-2.4-2.69-3.37-4.05
		c-0.47-0.65-0.57-1.7-1.13-2.25c-0.36-0.35-1.09-0.22-1.35-0.67c-0.88-1.54-1.25-3.33-2.25-4.72c-0.9-1.25-2.94-0.34-3.6-2.03
		c0.55-0.89,0.04-2.62,0.22-3.6C158.01,38.26,158.36,37.99,158.73,37.44z"/>
	<radialGradient id="SVGID_2_" cx="58.0279" cy="66.4351" r="1.7199" gradientUnits="userSpaceOnUse">
		<stop  offset="0.1668" style="stop-color:#11073E"/>
		<stop  offset="0.4929" style="stop-color:#292663"/>
		<stop  offset="0.9428" style="stop-color:#637BA2"/>
	</radialGradient>
	<path class="st2" d="M56.9,65.09c1.47,0.58,2.36,1.47,3.15,2.7c-0.23,0-0.45,0-0.67,0c-1.28-1.01-3.12-0.08-3.37-2.25
		c0.08-0.08,0.15-0.15,0.23-0.23C56.7,65.23,56.66,65.26,56.9,65.09z"/>
	<radialGradient id="SVGID_3_" cx="64.3228" cy="69.9192" r="0.1784" gradientUnits="userSpaceOnUse">
		<stop  offset="0.1668" style="stop-color:#11073E"/>
		<stop  offset="0.4929" style="stop-color:#292663"/>
		<stop  offset="0.9428" style="stop-color:#637BA2"/>
	</radialGradient>
	<path class="st3" d="M64.1,69.81c0.15,0,0.3,0,0.45,0c0,0.08,0,0.15,0,0.23C64.15,69.89,64.33,69.99,64.1,69.81z"/>
	<radialGradient id="SVGID_4_" cx="214.364" cy="83.4065" r="0.9054" gradientUnits="userSpaceOnUse">
		<stop  offset="0.1668" style="stop-color:#11073E"/>
		<stop  offset="0.4929" style="stop-color:#292663"/>
		<stop  offset="0.9428" style="stop-color:#637BA2"/>
	</radialGradient>
	<path class="st4" d="M214.03,82.62c0.3,0,0.6,0,0.9,0c0.27,0.51,0.37,0.51,0.45,1.35c-0.42,0.15-0.88,0.21-1.57,0.22
		c-0.22-0.4-0.28-0.38-0.45-0.9c0.07,0,0.15,0,0.23,0C213.78,82.8,213.77,82.97,214.03,82.62z"/>
	<path class="st0" d="M18.02,102.85c1.54,0.17,1.61,1.08,3.15,1.35c0.45-0.45,0.9-0.9,1.35-1.35c1.92,0.01,2.62,0.6,4.49,0.68
		c0.78,1.39,0.54,3.54,0.9,5.17c0.79,0.16,1.69,0.45,2.02,1.12c0.34,0.53,0.13,0.96,0,1.57c-0.67,0.29-1.71,0.9-2.25,1.13
		c-0.45,0-0.9,0-1.35,0c-0.38,0.45-0.75,0.9-1.12,1.35c-0.84,0.53-2.16,0.63-3.37,0.67c-0.86-1.59-6.89-2.08-8.54-2.25
		c-0.28-1.24-0.9-1.66-1.12-2.92c1.01-1.71,0.94-4.92,2.92-5.62C16.3,103.09,17.11,104.15,18.02,102.85z"/>
	<radialGradient id="SVGID_5_" cx="283.709" cy="115.4368" r="0.4486" gradientUnits="userSpaceOnUse">
		<stop  offset="0.1668" style="stop-color:#11073E"/>
		<stop  offset="0.4929" style="stop-color:#292663"/>
		<stop  offset="0.9428" style="stop-color:#637BA2"/>
	</radialGradient>
	<path class="st5" d="M284.16,114.99c-0.07,0.52-0.1,0.56-0.22,0.9c-0.39-0.14-0.21-0.04-0.45-0.22c-0.18-0.23-0.08-0.06-0.23-0.45
		c0.08-0.08,0.15-0.15,0.23-0.23C283.71,114.99,283.93,114.99,284.16,114.99z"/>
	<radialGradient id="SVGID_6_" cx="86.7634" cy="119.488" r="1.4461" gradientUnits="userSpaceOnUse">
		<stop  offset="0.1668" style="stop-color:#11073E"/>
		<stop  offset="0.4929" style="stop-color:#292663"/>
		<stop  offset="0.9428" style="stop-color:#637BA2"/>
	</radialGradient>
	<path class="st6" d="M85.45,118.59c1.61,0.05,1.88,0.75,3.15,1.12c0,0.15,0,0.3,0,0.45c-0.52,0-1.05,0-1.57,0
		c-0.38,0.26-1.1,0.24-1.8,0.22C84.72,119.4,84.9,119.46,85.45,118.59z"/>
	<radialGradient id="SVGID_7_" cx="94.7805" cy="120.7192" r="0.2511" gradientUnits="userSpaceOnUse">
		<stop  offset="0.1668" style="stop-color:#11073E"/>
		<stop  offset="0.4929" style="stop-color:#292663"/>
		<stop  offset="0.9428" style="stop-color:#637BA2"/>
	</radialGradient>
	<path class="st7" d="M94.44,120.61c0.47,0.08,0.43,0.05,0.67,0.22C94.65,120.75,94.68,120.78,94.44,120.61z"/>
	<radialGradient id="SVGID_8_" cx="271.4577" cy="145.6113" r="1.7075" gradientUnits="userSpaceOnUse">
		<stop  offset="0.1668" style="stop-color:#11073E"/>
		<stop  offset="0.4929" style="stop-color:#292663"/>
		<stop  offset="0.9428" style="stop-color:#637BA2"/>
	</radialGradient>
	<path class="st8" d="M269.1,145.11c1.85-0.02,3.27,0.34,4.72,0.67c-0.08,0.08-0.15,0.15-0.22,0.23
		C272.91,146.36,269.65,145.78,269.1,145.11z"/>
	<radialGradient id="SVGID_9_" cx="276.854" cy="146.4774" r="1.5004" gradientUnits="userSpaceOnUse">
		<stop  offset="0.1668" style="stop-color:#11073E"/>
		<stop  offset="0.4929" style="stop-color:#292663"/>
		<stop  offset="0.9428" style="stop-color:#637BA2"/>
	</radialGradient>
	<path class="st9" d="M276.29,145.56c0.98,0.12,1.26,0.12,2.25,0c0.15,0.42,0.21,0.88,0.23,1.58c-0.15,0-0.3,0-0.45,0
		c-1.16,0.78-2.47-0.39-3.37-0.68c0.08-0.08,0.15-0.15,0.23-0.23C275.49,145.97,275.99,145.84,276.29,145.56z"/>
	<radialGradient id="SVGID_10_" cx="90.4489" cy="151.514" r="0.8557" gradientUnits="userSpaceOnUse">
		<stop  offset="0.1668" style="stop-color:#11073E"/>
		<stop  offset="0.4929" style="stop-color:#292663"/>
		<stop  offset="0.9428" style="stop-color:#637BA2"/>
	</radialGradient>
	<path class="st10" d="M89.5,150.95c0.8-0.01,1.52,0.05,2.02,0.22c-0.48,0.75-0.75,0.9-2.02,0.9
		C89.34,151.52,89.33,151.51,89.5,150.95z"/>
	<radialGradient id="SVGID_11_" cx="134.2292" cy="155.5596" r="0.5338" gradientUnits="userSpaceOnUse">
		<stop  offset="0.1668" style="stop-color:#11073E"/>
		<stop  offset="0.4929" style="stop-color:#292663"/>
		<stop  offset="0.9428" style="stop-color:#637BA2"/>
	</radialGradient>
	<path class="st11" d="M134.9,155.22c-0.45,0-0.9,0-1.35,0c0,0.15,0,0.3,0,0.45c0.45,0.08,0.9,0.15,1.35,0.22
		C134.9,155.67,134.9,155.45,134.9,155.22z"/>
	<radialGradient id="SVGID_12_" cx="71.1795" cy="167.812" r="0.4276" gradientUnits="userSpaceOnUse">
		<stop  offset="0.1668" style="stop-color:#11073E"/>
		<stop  offset="0.4929" style="stop-color:#292663"/>
		<stop  offset="0.9428" style="stop-color:#637BA2"/>
	</radialGradient>
	<path class="st12" d="M71.07,167.59c0.47,0.09,0.43,0.05,0.67,0.23c-0.08,0-0.15,0-0.23,0c-0.26,0.18-0.38,0.17-0.9,0.22
		c0-0.08,0-0.15,0-0.22C71.01,167.67,70.83,167.77,71.07,167.59z"/>
	<radialGradient id="SVGID_13_" cx="66.2397" cy="168.936" r="0.4313" gradientUnits="userSpaceOnUse">
		<stop  offset="0.1668" style="stop-color:#11073E"/>
		<stop  offset="0.4929" style="stop-color:#292663"/>
		<stop  offset="0.9428" style="stop-color:#637BA2"/>
	</radialGradient>
	<path class="st13" d="M66.35,168.71c0.15,0.08,0.3,0.15,0.45,0.22c0.15,0.02-0.88,0.22-1.12,0.23c0-0.07,0-0.15,0-0.23
		C66.14,168.85,66.1,168.88,66.35,168.71z"/>
	<radialGradient id="SVGID_14_" cx="62.3528" cy="170.1427" r="1.8491" gradientUnits="userSpaceOnUse">
		<stop  offset="0.1668" style="stop-color:#11073E"/>
		<stop  offset="0.4929" style="stop-color:#292663"/>
		<stop  offset="0.9428" style="stop-color:#637BA2"/>
	</radialGradient>
	<path class="st14" d="M60.5,169.16c1.31,0.05,3.45-0.2,4.27,0.45c-0.15,0-0.3,0-0.45,0c-0.84,1.38-2.24,1.8-4.27,1.35
		C59.76,169.97,60.05,169.88,60.5,169.16z"/>
	<radialGradient id="SVGID_15_" cx="304.2764" cy="170.7348" r="0.9958" gradientUnits="userSpaceOnUse">
		<stop  offset="0.1668" style="stop-color:#11073E"/>
		<stop  offset="0.4929" style="stop-color:#292663"/>
		<stop  offset="0.9428" style="stop-color:#637BA2"/>
	</radialGradient>
	<path class="st15" d="M305.51,171.41c-0.61,0-1.03-0.01-1.35-0.22c-0.66-0.21-0.79-0.4-1.12-0.9c0.42-0.15,0.88-0.22,1.57-0.22
		c0.23,0.22,0.45,0.45,0.68,0.67C305.46,170.98,305.42,170.95,305.51,171.41z"/>
	<radialGradient id="SVGID_16_" cx="283.0349" cy="174.0651" r="1.13" gradientUnits="userSpaceOnUse">
		<stop  offset="0.1668" style="stop-color:#11073E"/>
		<stop  offset="0.4929" style="stop-color:#292663"/>
		<stop  offset="0.9428" style="stop-color:#637BA2"/>
	</radialGradient>
	<path class="st16" d="M281.91,173.21c0.67,0.07,1.35,0.15,2.02,0.22c0.15,0.15,0.3,0.3,0.45,0.45c0,0.15,0,0.3,0,0.45
		c-0.4,0.22-0.38,0.28-0.9,0.45c-0.87,0.47-1.27-0.39-1.8-0.9C281.76,173.66,281.84,173.43,281.91,173.21z"/>
	<radialGradient id="SVGID_17_" cx="314.0547" cy="190.9633" r="0.448" gradientUnits="userSpaceOnUse">
		<stop  offset="0.1668" style="stop-color:#11073E"/>
		<stop  offset="0.4929" style="stop-color:#292663"/>
		<stop  offset="0.9428" style="stop-color:#637BA2"/>
	</radialGradient>
	<path class="st17" d="M313.61,191.41c0.06-0.52,0.1-0.56,0.22-0.9c0.4,0.14,0.22,0.04,0.45,0.23c0.07,0,0.15,0,0.22,0
		c-0.14,0.39-0.04,0.22-0.22,0.45C314.04,191.36,314.07,191.33,313.61,191.41z"/>
	<radialGradient id="SVGID_18_" cx="220.4817" cy="195.7965" r="3.4933" gradientUnits="userSpaceOnUse">
		<stop  offset="0.1668" style="stop-color:#11073E"/>
		<stop  offset="0.4929" style="stop-color:#292663"/>
		<stop  offset="0.9428" style="stop-color:#637BA2"/>
	</radialGradient>
	<path class="st18" d="M217.85,191.86c0.3,0,0.6,0,0.9,0c1.98,1.9,4.62,3.45,4.72,7.19c-0.81,0.47-1.25,0.68-2.7,0.67
		c-1.27-1.1-2.62-1.5-3.15-3.37c0-0.61,0-1.2,0-1.8C217.42,193.56,217.43,192.66,217.85,191.86z"/>
	<radialGradient id="SVGID_19_" cx="263.2575" cy="194.1934" r="2.47" gradientUnits="userSpaceOnUse">
		<stop  offset="0.1668" style="stop-color:#11073E"/>
		<stop  offset="0.4929" style="stop-color:#292663"/>
		<stop  offset="0.9428" style="stop-color:#637BA2"/>
	</radialGradient>
	<path class="st19" d="M261.91,192.31c2.72-0.14,4.37,0.11,4.27,2.92c-0.18,0.23-0.08,0.06-0.23,0.45c-0.15,0-0.3,0-0.45,0
		c-1.46,1.19-4.73-0.41-5.17-1.8C261.15,193.49,261.5,193.12,261.91,192.31z"/>
	<radialGradient id="SVGID_20_" cx="277.7527" cy="196.5845" r="0.5079" gradientUnits="userSpaceOnUse">
		<stop  offset="0.1668" style="stop-color:#11073E"/>
		<stop  offset="0.4929" style="stop-color:#292663"/>
		<stop  offset="0.9428" style="stop-color:#637BA2"/>
	</radialGradient>
	<path class="st20" d="M278.31,197.03c-0.22,0-0.45,0-0.67,0c-0.22-0.4-0.28-0.38-0.45-0.9c0.22,0,0.45,0,0.67,0
		c0.23,0.18,0.06,0.08,0.45,0.23C278.31,196.58,278.31,196.81,278.31,197.03z"/>
	<radialGradient id="SVGID_21_" cx="212.0044" cy="207.5966" r="8.0383" gradientUnits="userSpaceOnUse">
		<stop  offset="0.1668" style="stop-color:#11073E"/>
		<stop  offset="0.4929" style="stop-color:#292663"/>
		<stop  offset="0.9428" style="stop-color:#637BA2"/>
	</radialGradient>
	<path class="st21" d="M207.28,197.26c1.79,0.71,2.02,3.54,2.7,5.4c0.86,2.36,2.2,4.54,3.15,6.74c0.44,1.03,0.32,2.37,0.9,3.37
		c1.26,2.17,2.66,0.59,2.7,4.49c-0.7,0.44-0.77,0.65-2.03,0.68c-1.15-1.17-1.42-1.71-1.35-4.27c-1.76-2.71-1.93-6.37-3.37-9.44
		C209.04,202.22,207.7,200.01,207.28,197.26z"/>
	<radialGradient id="SVGID_22_" cx="213.5779" cy="199.1699" r="0.2868" gradientUnits="userSpaceOnUse">
		<stop  offset="0.1668" style="stop-color:#11073E"/>
		<stop  offset="0.4929" style="stop-color:#292663"/>
		<stop  offset="0.9428" style="stop-color:#637BA2"/>
	</radialGradient>
	<path class="st22" d="M213.35,198.83c0.36,0.3,0.25,0.15,0.45,0.68c-0.08,0-0.15,0-0.22,0c0-0.08,0-0.15,0-0.23
		C213.4,199.05,213.5,199.22,213.35,198.83z"/>
	<radialGradient id="SVGID_23_" cx="216.6124" cy="206.3627" r="3.9455" gradientUnits="userSpaceOnUse">
		<stop  offset="0.1668" style="stop-color:#11073E"/>
		<stop  offset="0.4929" style="stop-color:#292663"/>
		<stop  offset="0.9428" style="stop-color:#637BA2"/>
	</radialGradient>
	<path class="st23" d="M214.25,201.31c1.72,1.21,1.37,3.03,2.25,5.17c0.82,0.97,1.65,1.95,2.47,2.92c-0.01,0.8-0.1,1.21-0.23,1.8
		c-0.15,0-0.3,0-0.45,0c-0.32,0.21-0.74,0.22-1.35,0.22c-0.56-0.84-0.89-0.91-0.9-2.47C216.84,207.7,214.42,203.49,214.25,201.31z"
		/>
	<radialGradient id="SVGID_24_" cx="148.7275" cy="219.406" r="1.3546" gradientUnits="userSpaceOnUse">
		<stop  offset="0.1668" style="stop-color:#11073E"/>
		<stop  offset="0.4929" style="stop-color:#292663"/>
		<stop  offset="0.9428" style="stop-color:#637BA2"/>
	</radialGradient>
	<path class="st24" d="M148.39,218.16c0.38,0,0.75,0,1.12,0c0.46,0.72,0.67,0.9,0.67,2.24c-0.15,0-0.3,0-0.45,0
		c-0.41,0.28-1.28,0.24-2.02,0.23c-0.27-0.51-0.36-0.51-0.45-1.35C147.64,218.91,148.02,218.54,148.39,218.16z"/>
	<radialGradient id="SVGID_25_" cx="167.833" cy="223.3335" r="0.3973" gradientUnits="userSpaceOnUse">
		<stop  offset="0.1668" style="stop-color:#11073E"/>
		<stop  offset="0.4929" style="stop-color:#292663"/>
		<stop  offset="0.9428" style="stop-color:#637BA2"/>
	</radialGradient>
	<path class="st25" d="M167.72,222.88c0.37,0.3,0.25,0.14,0.45,0.67c-0.07,0-0.15,0-0.22,0c-0.23,0.18-0.06,0.08-0.45,0.23
		C167.56,223.26,167.6,223.23,167.72,222.88z"/>
	<radialGradient id="SVGID_26_" cx="226.1469" cy="238.9556" r="1.6948" gradientUnits="userSpaceOnUse">
		<stop  offset="0.1668" style="stop-color:#11073E"/>
		<stop  offset="0.4929" style="stop-color:#292663"/>
		<stop  offset="0.9428" style="stop-color:#637BA2"/>
	</radialGradient>
	<path class="st26" d="M225.27,236.82c0.7,0.19,1.28,0.51,1.57,1.13c0.55,0.76,0.43,2,0.22,2.92c-0.36,0.12-0.54,0.18-1.12,0.22
		c-0.46-0.73-0.67-0.9-0.68-2.25C224.87,238.24,225.15,237.56,225.27,236.82z"/>
	<radialGradient id="SVGID_27_" cx="161.99" cy="238.1699" r="0.3972" gradientUnits="userSpaceOnUse">
		<stop  offset="0.1668" style="stop-color:#11073E"/>
		<stop  offset="0.4929" style="stop-color:#292663"/>
		<stop  offset="0.9428" style="stop-color:#637BA2"/>
	</radialGradient>
	<path class="st27" d="M161.65,237.72c0.23,0,0.45,0,0.68,0c-0.07,0.52-0.1,0.56-0.23,0.9c-0.15,0-0.3,0-0.45,0
		C161.65,238.32,161.65,238.02,161.65,237.72z"/>
	<radialGradient id="SVGID_28_" cx="230.8414" cy="256.8276" r="0.9445" gradientUnits="userSpaceOnUse">
		<stop  offset="0.1668" style="stop-color:#11073E"/>
		<stop  offset="0.4929" style="stop-color:#292663"/>
		<stop  offset="0.9428" style="stop-color:#637BA2"/>
	</radialGradient>
	<path class="st28" d="M230.43,255.7c0.69,0.43,0.98,0.78,1.13,1.8c-0.18,0.22-0.08,0.06-0.22,0.45c-0.15,0-0.3,0-0.45,0
		c0-0.08,0-0.15,0-0.23c-0.56-0.29-0.16,0.09-0.45-0.45C229.92,256.58,230.13,256.42,230.43,255.7z"/>
	<radialGradient id="SVGID_29_" cx="164.3976" cy="260.9839" r="1.5385" gradientUnits="userSpaceOnUse">
		<stop  offset="0.1668" style="stop-color:#11073E"/>
		<stop  offset="0.4929" style="stop-color:#292663"/>
		<stop  offset="0.9428" style="stop-color:#637BA2"/>
	</radialGradient>
	<path class="st29" d="M164.57,258.85c0.52,0.77,0.1,3.4-0.22,4.27c-0.18-0.23-0.08-0.06-0.23-0.45
		C163.66,261.89,164.41,259.96,164.57,258.85z"/>
	<radialGradient id="SVGID_30_" cx="163.9668" cy="265.0327" r="0.5685" gradientUnits="userSpaceOnUse">
		<stop  offset="0.1668" style="stop-color:#11073E"/>
		<stop  offset="0.4929" style="stop-color:#292663"/>
		<stop  offset="0.9428" style="stop-color:#637BA2"/>
	</radialGradient>
	<path class="st30" d="M163.9,264.25c0.24,0.35,0.23,0.92,0.22,1.58c-0.07,0-0.15,0-0.22,0c0-0.08,0-0.15,0-0.23
		C163.72,265.22,163.85,265.01,163.9,264.25z"/>
	<radialGradient id="SVGID_31_" cx="163.3396" cy="268.9609" r="2.0375" gradientUnits="userSpaceOnUse">
		<stop  offset="0.1668" style="stop-color:#11073E"/>
		<stop  offset="0.4929" style="stop-color:#292663"/>
		<stop  offset="0.9428" style="stop-color:#637BA2"/>
	</radialGradient>
	<path class="st31" d="M163.68,266.26c0.35,0.55,0.66,3.66,0.67,4.5c-0.7,0.46-0.66,0.77-1.8,0.9c-0.12-0.36-0.18-0.54-0.22-1.12
		C162.78,269.11,163.22,267.69,163.68,266.26z"/>
</g>
<g>
	<path class="st32" d="M184.24,139.41c0,18.63-11.48,31.4-27.06,31.4c-6.44,0-11.36-2.46-13.59-3.87v11.13
		c0,6.21,2.46,9.02,9.96,9.02v4.69h-28.47v-4.69c6.21,0,8.67-2.81,8.67-9.02V135.2c0-8.67-3.51-9.72-8.9-9.72v-4.22
		c0,0,11.01-5.98,15.93-5.98c2.23,0,2.81,1.17,2.81,3.16v4.92c4.33-3.52,11.48-8.08,18.75-8.08
		C174.05,115.28,184.24,124.42,184.24,139.41z M174.4,143.63c0-10.08-6.09-20.39-17.81-20.39c-4.8,0-10.08,3.51-13,5.74v21.91
		c0,6.21,3.28,14.76,14.64,14.76C171.35,165.66,174.4,154.06,174.4,143.63z"/>
	<path class="st32" d="M249.03,163.31c0,4.22-3.28,7.26-9.26,7.26c-9.49,0-15.58-10.78-25.31-27.18l-5.04,4.22v8.08
		c0,6.21,2.46,9.02,7.26,9.02h1.29v4.69h-25.89v-4.69c4.8,0,7.5-2.81,7.5-9.02v-48.27c0-8.67-3.51-9.72-8.9-9.72v-4.22
		c0,0,11.01-5.97,15.93-5.97c2.23,0,2.81,1.17,2.81,3.16v51.08c9.72-8.44,15.35-13.12,15.35-16.17c0-2.81-3.51-4.22-7.85-4.22v-4.69
		h29.06v4.69c-4.33,0-10.54,3.4-15.7,7.97l-9.96,8.9c3.16,4.57,12.3,20.5,20.85,20.5c2.93,0,5.15-1.52,5.15-1.52
		S249.03,159.92,249.03,163.31z"/>
</g>
<g>
	<path class="st33" d="M289.94,203.88c0,4.92-3.04,8.3-7.16,8.3c-1.7,0-3-0.65-3.59-1.02v2.94c0,1.64,0.65,2.39,2.63,2.39v1.24
		h-7.53v-1.24c1.64,0,2.29-0.74,2.29-2.39v-11.34c0-2.29-0.93-2.57-2.35-2.57v-1.12c0,0,2.91-1.58,4.21-1.58
		c0.59,0,0.74,0.31,0.74,0.84v1.3c1.15-0.93,3.04-2.14,4.96-2.14C287.25,197.49,289.94,199.91,289.94,203.88z M287.34,204.99
		c0-2.66-1.61-5.39-4.71-5.39c-1.27,0-2.66,0.93-3.44,1.52v5.79c0,1.64,0.87,3.9,3.87,3.9
		C286.54,210.81,287.34,207.75,287.34,204.99z"/>
	<path class="st33" d="M308.03,210.41c0,0.65-0.9,1.8-2.51,1.8c-1.3,0-2.08-1.08-2.11-2.35c-1.08,0.96-3.07,2.35-5.39,2.35
		c-2.82,0-3.96-2.07-3.96-4.43v-5.92c0-2.29-1.05-2.6-2.48-2.6v-1.11c0,0,2.17-0.34,3.47-0.34c1.21,0,1.61,0.25,1.61,0.77v7.9
		c0,2.54,0.65,3.47,2.94,3.47c1.49,0,3.13-1.15,3.81-1.67v-6.41c0-2.29-1.21-2.6-2.63-2.6v-1.11c0,0,2.45-0.34,3.75-0.34
		c1.21,0,1.49,0.25,1.49,0.77v10.38c0,0.56,0.19,1.05,0.8,1.05c0.53,0,0.93-0.43,0.93-0.43S308.03,209.82,308.03,210.41z"/>
	<path class="st33" d="M324.6,203.88c0,4.92-3.04,8.3-7.16,8.3c-3.78,0-6.2-1.27-6.2-1.27v-15.49c0-2.29-0.93-2.57-2.35-2.57v-1.11
		c0,0,2.91-1.58,4.21-1.58c0.59,0,0.74,0.31,0.74,0.83v8.64c1.15-0.93,3.04-2.14,4.96-2.14C321.91,197.49,324.6,199.91,324.6,203.88
		z M322,204.99c0-2.66-1.61-5.39-4.71-5.39c-1.27,0-2.66,0.93-3.44,1.52v5.79c0,1.64,0.87,3.9,3.87,3.9
		C321.2,210.81,322,207.75,322,204.99z"/>
	<path class="st33" d="M331.39,208.18c0,1.64,0.65,2.39,1.92,2.39v1.24h-6.66v-1.24c1.42,0,2.14-0.74,2.14-2.39v-12.76
		c0-2.29-0.93-2.57-2.35-2.57v-1.11c0,0,2.91-1.58,4.21-1.58c0.59,0,0.74,0.31,0.74,0.83V208.18z"/>
	<path class="st33" d="M340.28,208.18c0,1.64,0.68,2.39,1.95,2.39v1.24h-6.81v-1.24c1.61,0,2.29-0.74,2.29-2.39v-5.58
		c0-2.29-0.96-2.42-2.38-2.42v-1.12c0,0,2.91-1.58,4.21-1.58c0.59,0,0.74,0.31,0.74,0.84V208.18z M336.96,192.35
		c0-0.99,0.81-1.8,1.8-1.8s1.76,0.81,1.76,1.8c0,0.96-0.77,1.77-1.76,1.77S336.96,193.31,336.96,192.35z"/>
	<path class="st33" d="M351.86,197.49c2.97,0,4.83,1.46,4.83,3.34c0,0.99-0.53,2.04-1.77,2.04c-1.36,0-1.67-1.24-1.67-1.24
		s0.44-0.46,0.44-1.08c0-0.93-0.93-1.73-2.48-1.73c-2.54,0-4.24,2.2-4.24,5.08c0,2.94,1.76,5.82,5.14,5.82
		c2.85,0,3.84-2.04,3.84-2.04s0.71,0.28,0.71,1.05c0,1.27-1.86,3.44-5.42,3.44c-4.24,0-6.78-3.04-6.78-7.09
		C344.46,200.65,347.49,197.49,351.86,197.49z"/>
	<path class="st33" d="M378.31,200.13c0,1.08-0.65,2.08-1.89,2.08c-1.05,0-1.43-0.78-1.43-0.78s0.28-0.34,0.28-0.77
		c0-0.43-0.31-0.87-0.93-0.87c-1.02,0-2.14,1.18-2.63,1.8v6.6c0,1.64,0.65,2.39,3.16,2.39v1.24h-8.05v-1.24
		c1.64,0,2.32-0.74,2.32-2.39v-5.58c0-2.29-0.96-2.42-2.39-2.42v-1.12c0,0,2.91-1.58,4.21-1.58c0.59,0,0.74,0.31,0.74,0.84v1.86
		c0.8-0.93,2.38-2.6,3.97-2.6C377.23,197.59,378.31,198.52,378.31,200.13z"/>
	<path class="st33" d="M382.4,204.21c0.22,3.04,2.01,5.51,5.14,5.51c2.85,0,3.84-2.04,3.84-2.04s0.71,0.25,0.71,1.12
		c0,0.96-1.39,3.41-5.73,3.41c-3.75,0-6.35-3.06-6.35-7.03c0-4.55,3.07-7.68,6.54-7.68c3.47,0,5.79,2.91,5.79,5.76
		C392.34,203.78,384.35,204.15,382.4,204.21z M389.09,202.23c0,0-0.12-3.56-3.16-3.56c-1.64,0-3.41,1.8-3.56,4.46
		C383.86,203.04,387.76,202.73,389.09,202.23z"/>
	<path class="st33" d="M399,208.18c0,1.64,0.65,2.39,1.92,2.39v1.24h-6.66v-1.24c1.42,0,2.14-0.74,2.14-2.39v-12.76
		c0-2.29-0.93-2.57-2.36-2.57v-1.11c0,0,2.91-1.58,4.21-1.58c0.59,0,0.74,0.31,0.74,0.83V208.18z"/>
	<path class="st33" d="M415.82,210.35c0,0.96-1.05,1.86-2.38,1.86c-1.42,0-2.23-0.99-2.23-2.41c-1.08,1.24-2.79,2.38-4.58,2.38
		c-2.07,0-3.47-1.52-3.47-3.28c0-3.1,4.18-5.05,8.05-5.7v-1.83c0-1.49-1.08-2.54-2.88-2.54c-1.58,0-2.23,0.84-2.23,1.58
		c0,0.93,0.99,1.46,0.99,1.46s-0.28,1.24-1.67,1.24c-1.21,0-1.77-0.96-1.77-1.92c0-1.61,1.64-3.69,5.51-3.69
		c3.66,0,4.65,1.86,4.65,3.9v7.56c0,0.56,0.19,1.05,0.77,1.05c0.56,0,0.96-0.43,0.96-0.43S415.82,209.85,415.82,210.35z
		 M411.21,208.46v-4.09c-3,0.59-5.23,1.8-5.23,3.78c0,1.18,0.81,1.92,2.04,1.92C409.6,210.07,410.8,208.89,411.21,208.46z"/>
	<path class="st33" d="M422.11,208.18c0,1.21,0.22,2.17,1.86,2.17c1.33,0,1.95-0.93,1.95-0.93s0.34,0.22,0.34,0.9
		c0,0.9-1.05,1.86-3.28,1.86c-1.7,0-3.47-0.9-3.47-2.91v-7.37c0-2.29-0.9-2.57-2.32-2.57v-1.12c2.14-0.34,3.16-1.49,3.78-3.13h1.15
		v2.79h4.21v1.46l-4.21,0.43V208.18z"/>
	<path class="st33" d="M433.04,208.18c0,1.64,0.68,2.39,1.95,2.39v1.24h-6.82v-1.24c1.61,0,2.29-0.74,2.29-2.39v-5.58
		c0-2.29-0.96-2.42-2.38-2.42v-1.12c0,0,2.91-1.58,4.21-1.58c0.59,0,0.74,0.31,0.74,0.84V208.18z M429.73,192.35
		c0-0.99,0.8-1.8,1.8-1.8c0.99,0,1.77,0.81,1.77,1.8c0,0.96-0.77,1.77-1.77,1.77C430.53,194.12,429.73,193.31,429.73,192.35z"/>
	<path class="st33" d="M451.29,204.77c0,4.34-3.31,7.4-7.06,7.4c-3.66,0-7.03-2.88-7.03-7.37c0-4.06,3.07-7.31,6.97-7.31
		C447.91,197.49,451.29,200.62,451.29,204.77z M448.31,205.67c0-3.53-1.27-7-4.49-7c-2.01,0-3.66,2.01-3.66,5.14
		c0,4.18,1.58,7.19,4.46,7.19C446.83,211,448.31,208.65,448.31,205.67z"/>
	<path class="st33" d="M470.27,211.8h-7.28v-1.24c1.86,0,2.51-0.74,2.51-2.39v-5.33c0-1.95-0.71-3.25-3.28-3.25
		c-1.42,0-3,1.15-3.69,1.7v6.88c0,1.64,0.65,2.39,2.51,2.39v1.24h-7.37v-1.24c1.61,0,2.26-0.74,2.26-2.39v-5.42
		c0-2.29-0.93-2.57-2.35-2.57v-1.12c0,0,2.91-1.58,4.21-1.58c0.59,0,0.74,0.31,0.74,0.84v1.61c1.11-0.93,3.13-2.45,5.2-2.45
		c2.08,0,4.37,0.9,4.37,4.24v6.44c0,1.64,0.65,2.39,2.17,2.39V211.8z"/>
	<path class="st33" d="M474.79,200.59c0,2.94,7.22,3.04,7.22,7.37c0,2.17-1.73,4.21-5.08,4.21c-3.16,0-4.86-1.49-4.86-2.94
		c0-0.84,0.53-1.76,1.7-1.76c1.43,0,1.7,1.08,1.7,1.08s-0.59,0.37-0.59,1.08c0,0.84,1.05,1.24,1.98,1.24c1.55,0,2.88-0.68,2.88-1.95
		c0-2.91-7.22-3.16-7.22-7.56c0-2.57,2.11-3.87,4.62-3.87c2.72,0,4.15,1.42,4.15,2.63c0,0.74-0.5,1.55-1.61,1.55
		c-1.15,0-1.43-0.87-1.43-0.87s0.46-0.34,0.46-0.96c0-0.62-0.65-1.15-1.77-1.15C475.41,198.7,474.79,199.72,474.79,200.59z"/>
	<path class="st33" d="M279.54,237.81c0,1.64,0.68,2.39,1.95,2.39v1.24h-6.81v-1.24c1.61,0,2.29-0.74,2.29-2.39v-5.57
		c0-2.29-0.96-2.42-2.39-2.42v-1.12c0,0,2.91-1.58,4.21-1.58c0.59,0,0.74,0.31,0.74,0.84V237.81z M276.22,221.98
		c0-0.99,0.8-1.8,1.8-1.8c0.99,0,1.77,0.81,1.77,1.8c0,0.96-0.77,1.77-1.77,1.77C277.03,223.75,276.22,222.94,276.22,221.98z"/>
	<path class="st33" d="M300.16,241.43h-7.28v-1.24c1.86,0,2.51-0.74,2.51-2.39v-5.33c0-1.95-0.71-3.25-3.28-3.25
		c-1.42,0-3,1.15-3.69,1.7v6.88c0,1.64,0.65,2.39,2.51,2.39v1.24h-7.37v-1.24c1.61,0,2.26-0.74,2.26-2.39v-5.42
		c0-2.29-0.93-2.57-2.35-2.57v-1.12c0,0,2.91-1.58,4.21-1.58c0.59,0,0.74,0.31,0.74,0.84v1.61c1.12-0.93,3.13-2.45,5.21-2.45
		c2.07,0,4.37,0.9,4.37,4.24v6.44c0,1.64,0.65,2.39,2.17,2.39V241.43z"/>
	<path class="st33" d="M306.27,237.81c0,1.21,0.22,2.17,1.86,2.17c1.33,0,1.95-0.93,1.95-0.93s0.34,0.22,0.34,0.9
		c0,0.9-1.05,1.86-3.28,1.86c-1.7,0-3.47-0.9-3.47-2.91v-7.37c0-2.29-0.9-2.57-2.32-2.57v-1.11c2.14-0.34,3.16-1.49,3.78-3.13h1.15
		v2.79h4.21v1.46l-4.21,0.43V237.81z"/>
	<path class="st33" d="M314.88,233.84c0.22,3.04,2.01,5.51,5.14,5.51c2.85,0,3.84-2.04,3.84-2.04s0.71,0.25,0.71,1.12
		c0,0.96-1.39,3.41-5.73,3.41c-3.75,0-6.35-3.07-6.35-7.03c0-4.55,3.07-7.68,6.54-7.68c3.47,0,5.79,2.91,5.79,5.76
		C324.82,233.41,316.83,233.78,314.88,233.84z M321.57,231.86c0,0-0.12-3.56-3.16-3.56c-1.64,0-3.41,1.8-3.56,4.46
		C316.33,232.67,320.24,232.36,321.57,231.86z"/>
	<path class="st33" d="M339.97,230.13c-0.5,0-1.15-0.16-1.64-0.34c0.34,0.62,0.53,1.36,0.53,2.2c0,3.28-2.88,5.08-5.76,5.08
		c-0.68,0-1.33-0.09-1.95-0.31c-0.62,0.37-1.05,0.74-1.05,1.24c0,0.9,1.39,0.93,3.87,0.96c3.84,0.06,6.97,0.28,6.97,3.65
		c0,3.87-4.12,4.71-7.62,4.71c-3.5,0-6.54-0.84-6.54-2.76c0-1.76,2.6-2.17,2.6-2.17s-0.03,0.12-0.03,0.34c0,0.77,0.4,3.06,4.65,3.06
		c3,0,4.96-1.15,4.96-2.38c0-1.46-2.79-1.55-5.26-1.58c-3.04-0.06-6.04-0.12-6.04-2.32c0-1.67,1.74-2.72,2.51-3.19
		c-1.46-0.84-2.45-2.29-2.45-4.15c0-2.94,2.48-5.02,5.48-5.02c2.11,0,3.28,1.02,5.3,1.02c1.64,0,2.11-0.68,2.11-0.68
		s0.77,0.28,0.77,1.33C341.36,229.91,340.59,230.13,339.97,230.13z M336.16,232.48c0-2.72-1.61-4-3.1-4c-1.73,0-2.66,1.67-2.66,3.44
		c0,1.8,0.96,3.96,3.13,3.96C335.26,235.89,336.16,234.5,336.16,232.48z"/>
	<path class="st33" d="M354.46,229.75c0,1.08-0.65,2.08-1.89,2.08c-1.05,0-1.42-0.77-1.42-0.77s0.28-0.34,0.28-0.77
		c0-0.43-0.31-0.87-0.93-0.87c-1.02,0-2.14,1.18-2.63,1.8v6.6c0,1.64,0.65,2.39,3.16,2.39v1.24h-8.05v-1.24
		c1.64,0,2.32-0.74,2.32-2.39v-5.57c0-2.29-0.96-2.42-2.39-2.42v-1.12c0,0,2.91-1.58,4.21-1.58c0.59,0,0.74,0.31,0.74,0.84v1.86
		c0.8-0.93,2.38-2.6,3.96-2.6C353.38,227.22,354.46,228.14,354.46,229.75z"/>
	<path class="st33" d="M368.96,239.98c0,0.96-1.05,1.86-2.39,1.86c-1.42,0-2.23-0.99-2.23-2.42c-1.08,1.24-2.79,2.38-4.58,2.38
		c-2.08,0-3.47-1.52-3.47-3.28c0-3.1,4.18-5.05,8.05-5.7v-1.83c0-1.49-1.08-2.54-2.88-2.54c-1.58,0-2.23,0.84-2.23,1.58
		c0,0.93,0.99,1.46,0.99,1.46s-0.28,1.24-1.67,1.24c-1.21,0-1.76-0.96-1.76-1.92c0-1.61,1.64-3.69,5.51-3.69
		c3.66,0,4.65,1.86,4.65,3.9v7.56c0,0.56,0.19,1.05,0.77,1.05c0.56,0,0.96-0.43,0.96-0.43S368.96,239.48,368.96,239.98z
		 M364.34,238.09V234c-3,0.59-5.23,1.8-5.23,3.78c0,1.18,0.8,1.92,2.04,1.92C362.73,239.7,363.94,238.52,364.34,238.09z"/>
	<path class="st33" d="M375.24,237.81c0,1.21,0.22,2.17,1.86,2.17c1.33,0,1.95-0.93,1.95-0.93s0.34,0.22,0.34,0.9
		c0,0.9-1.05,1.86-3.28,1.86c-1.7,0-3.47-0.9-3.47-2.91v-7.37c0-2.29-0.9-2.57-2.32-2.57v-1.11c2.14-0.34,3.16-1.49,3.78-3.13h1.15
		v2.79h4.21v1.46l-4.21,0.43V237.81z"/>
	<path class="st33" d="M383.86,233.84c0.22,3.04,2.01,5.51,5.14,5.51c2.85,0,3.84-2.04,3.84-2.04s0.71,0.25,0.71,1.12
		c0,0.96-1.39,3.41-5.73,3.41c-3.75,0-6.35-3.07-6.35-7.03c0-4.55,3.07-7.68,6.54-7.68c3.47,0,5.79,2.91,5.79,5.76
		C393.8,233.41,385.81,233.78,383.86,233.84z M390.55,231.86c0,0-0.12-3.56-3.16-3.56c-1.64,0-3.41,1.8-3.56,4.46
		C385.31,232.67,389.21,232.36,390.55,231.86z"/>
	<path class="st33" d="M411.61,240.04c0,0.65-0.9,1.8-2.51,1.8c-1.12,0-2.08-0.87-2.11-2.2c-1.15,0.93-3.04,2.14-4.96,2.14
		c-3.1,0-5.79-2.42-5.79-6.38c0-4.93,3.04-8.3,7.15-8.3c1.7,0,3,0.65,3.59,1.02v-3.07c0-2.29-0.93-2.57-2.35-2.57v-1.12
		c0,0,2.91-1.58,4.21-1.58c0.59,0,0.74,0.31,0.74,0.83v17.97c0,0.56,0.19,1.05,0.81,1.05c0.53,0,0.93-0.43,0.93-0.43
		S411.61,239.45,411.61,240.04z M403.55,239.67c1.27,0,2.66-0.93,3.44-1.52v-5.79c0-1.64-0.87-3.9-3.87-3.9
		c-3.13,0-4.28,3.07-4.28,5.82C398.85,236.94,400.46,239.67,403.55,239.67z"/>
	<path class="st33" d="M447.01,241.43h-7.28v-1.24c1.86,0,2.51-0.74,2.51-2.39v-5.33c0-1.95-0.4-3.25-2.97-3.25
		c-1.8,0-3.07,0.99-3.66,1.58c0.03,0.19,0.03,0.37,0.03,0.56v6.44c0,1.64,0.65,2.39,2.17,2.39v1.24h-7.28v-1.24
		c1.86,0,2.51-0.74,2.51-2.39v-5.33c0-1.95-0.4-3.25-2.97-3.25c-1.83,0-3.07,0.99-3.65,1.58v7c0,1.64,0.65,2.39,2.2,2.39v1.24h-7.06
		v-1.24c1.61,0,2.26-0.74,2.26-2.39v-5.42c0-2.29-0.93-2.57-2.35-2.57v-1.12c0,0,2.91-1.58,4.21-1.58c0.59,0,0.74,0.31,0.74,0.84
		v1.49c1.08-0.93,2.97-2.32,5.17-2.32c1.64,0,3.22,0.56,3.81,2.45c1.02-0.96,3-2.45,5.39-2.45c2.08,0,4.06,0.9,4.06,4.24v6.44
		c0,1.64,0.65,2.39,2.17,2.39V241.43z"/>
	<path class="st33" d="M461.57,239.98c0,0.96-1.05,1.86-2.39,1.86c-1.43,0-2.23-0.99-2.23-2.42c-1.08,1.24-2.79,2.38-4.58,2.38
		c-2.08,0-3.47-1.52-3.47-3.28c0-3.1,4.18-5.05,8.05-5.7v-1.83c0-1.49-1.08-2.54-2.88-2.54c-1.58,0-2.23,0.84-2.23,1.58
		c0,0.93,0.99,1.46,0.99,1.46s-0.28,1.24-1.67,1.24c-1.21,0-1.76-0.96-1.76-1.92c0-1.61,1.64-3.69,5.51-3.69
		c3.66,0,4.65,1.86,4.65,3.9v7.56c0,0.56,0.19,1.05,0.77,1.05c0.56,0,0.96-0.43,0.96-0.43S461.57,239.48,461.57,239.98z
		 M456.95,238.09V234c-3,0.59-5.23,1.8-5.23,3.78c0,1.18,0.81,1.92,2.04,1.92C455.34,239.7,456.55,238.52,456.95,238.09z"/>
	<path class="st33" d="M474.95,229.75c0,1.08-0.65,2.08-1.89,2.08c-1.05,0-1.42-0.77-1.42-0.77s0.28-0.34,0.28-0.77
		c0-0.43-0.31-0.87-0.93-0.87c-1.02,0-2.14,1.18-2.63,1.8v6.6c0,1.64,0.65,2.39,3.16,2.39v1.24h-8.05v-1.24
		c1.64,0,2.32-0.74,2.32-2.39v-5.57c0-2.29-0.96-2.42-2.38-2.42v-1.12c0,0,2.91-1.58,4.21-1.58c0.59,0,0.74,0.31,0.74,0.84v1.86
		c0.8-0.93,2.38-2.6,3.96-2.6C473.86,227.22,474.95,228.14,474.95,229.75z"/>
	<path class="st33" d="M491.37,239.82c0,1.12-0.87,1.92-2.45,1.92c-2.51,0-4.12-2.85-6.69-7.19l-1.33,1.12v2.14
		c0,1.64,0.65,2.39,1.92,2.39h0.34v1.24h-6.85v-1.24c1.27,0,1.98-0.74,1.98-2.39v-12.76c0-2.29-0.93-2.57-2.35-2.57v-1.12
		c0,0,2.91-1.58,4.21-1.58c0.59,0,0.74,0.31,0.74,0.83v13.51c2.57-2.23,4.06-3.47,4.06-4.27c0-0.74-0.93-1.12-2.08-1.12v-1.24h7.68
		v1.24c-1.15,0-2.79,0.9-4.15,2.11l-2.63,2.35c0.83,1.21,3.25,5.42,5.51,5.42c0.77,0,1.36-0.4,1.36-0.4S491.37,238.92,491.37,239.82
		z"/>
	<path class="st33" d="M495.3,233.84c0.22,3.04,2.01,5.51,5.14,5.51c2.85,0,3.84-2.04,3.84-2.04s0.71,0.25,0.71,1.12
		c0,0.96-1.39,3.41-5.73,3.41c-3.75,0-6.35-3.07-6.35-7.03c0-4.55,3.07-7.68,6.54-7.68c3.47,0,5.79,2.91,5.79,5.76
		C505.24,233.41,497.25,233.78,495.3,233.84z M501.99,231.86c0,0-0.12-3.56-3.16-3.56c-1.64,0-3.41,1.8-3.56,4.46
		C496.75,232.67,500.66,232.36,501.99,231.86z"/>
	<path class="st33" d="M511.9,237.81c0,1.21,0.22,2.17,1.86,2.17c1.33,0,1.95-0.93,1.95-0.93s0.34,0.22,0.34,0.9
		c0,0.9-1.05,1.86-3.28,1.86c-1.7,0-3.47-0.9-3.47-2.91v-7.37c0-2.29-0.9-2.57-2.32-2.57v-1.11c2.14-0.34,3.16-1.49,3.78-3.13h1.15
		v2.79h4.21v1.46l-4.21,0.43V237.81z"/>
	<path class="st33" d="M522.83,237.81c0,1.64,0.68,2.39,1.95,2.39v1.24h-6.82v-1.24c1.61,0,2.29-0.74,2.29-2.39v-5.57
		c0-2.29-0.96-2.42-2.38-2.42v-1.12c0,0,2.91-1.58,4.21-1.58c0.59,0,0.74,0.31,0.74,0.84V237.81z M519.52,221.98
		c0-0.99,0.81-1.8,1.8-1.8c0.99,0,1.77,0.81,1.77,1.8c0,0.96-0.77,1.77-1.77,1.77C520.32,223.75,519.52,222.94,519.52,221.98z"/>
	<path class="st33" d="M543.46,241.43h-7.28v-1.24c1.86,0,2.51-0.74,2.51-2.39v-5.33c0-1.95-0.71-3.25-3.28-3.25
		c-1.42,0-3,1.15-3.69,1.7v6.88c0,1.64,0.65,2.39,2.51,2.39v1.24h-7.37v-1.24c1.61,0,2.26-0.74,2.26-2.39v-5.42
		c0-2.29-0.93-2.57-2.35-2.57v-1.12c0,0,2.91-1.58,4.21-1.58c0.59,0,0.74,0.31,0.74,0.84v1.61c1.12-0.93,3.13-2.45,5.21-2.45
		c2.07,0,4.37,0.9,4.37,4.24v6.44c0,1.64,0.65,2.39,2.17,2.39V241.43z"/>
	<path class="st33" d="M558.05,230.13c-0.5,0-1.14-0.16-1.64-0.34c0.34,0.62,0.53,1.36,0.53,2.2c0,3.28-2.88,5.08-5.76,5.08
		c-0.68,0-1.33-0.09-1.95-0.31c-0.62,0.37-1.05,0.74-1.05,1.24c0,0.9,1.39,0.93,3.87,0.96c3.84,0.06,6.97,0.28,6.97,3.65
		c0,3.87-4.12,4.71-7.62,4.71c-3.5,0-6.54-0.84-6.54-2.76c0-1.76,2.6-2.17,2.6-2.17s-0.03,0.12-0.03,0.34c0,0.77,0.4,3.06,4.65,3.06
		c3,0,4.95-1.15,4.95-2.38c0-1.46-2.79-1.55-5.26-1.58c-3.04-0.06-6.04-0.12-6.04-2.32c0-1.67,1.73-2.72,2.51-3.19
		c-1.46-0.84-2.45-2.29-2.45-4.15c0-2.94,2.48-5.02,5.48-5.02c2.11,0,3.28,1.02,5.3,1.02c1.64,0,2.11-0.68,2.11-0.68
		s0.77,0.28,0.77,1.33C559.45,229.91,558.67,230.13,558.05,230.13z M554.24,232.48c0-2.72-1.61-4-3.1-4c-1.74,0-2.66,1.67-2.66,3.44
		c0,1.8,0.96,3.96,3.13,3.96C553.34,235.89,554.24,234.5,554.24,232.48z"/>
</g>
</svg>
