<?xml version="1.0" standalone="no"?>
<!DOCTYPE svg PUBLIC "-//W3C//DTD SVG 20010904//EN"
 "http://www.w3.org/TR/2001/REC-SVG-20010904/DTD/svg10.dtd">
<svg version="1.0" xmlns="http://www.w3.org/2000/svg"
 width="700.000000pt" height="700.000000pt" viewBox="0 0 700.000000 700.000000"
 preserveAspectRatio="xMidYMid meet">
<metadata>
Created by potrace 1.14, written by Peter Selinger 2001-2017
</metadata>
<g transform="translate(0.000000,700.000000) scale(0.100000,-0.100000)"
fill="#000000" stroke="none">
<path d="M2128 6104 c-5 -5 -614 -14 -981 -14 l-258 0 6 -2157 c3 -1187 8
-2342 10 -2568 2 -225 4 -440 5 -476 l0 -65 2658 0 2657 1 2 2643 2 2643
-2048 -1 c-1127 -1 -2051 -3 -2053 -6z m419 -340 c98 -25 192 -47 209 -48 43
-5 97 16 151 58 40 31 51 35 90 31 25 -2 111 -7 191 -10 81 -3 194 -7 252 -10
321 -14 617 -18 1475 -19 l950 -1 2 -345 c6 -1146 15 -1819 28 -2150 3 -74 6
-522 6 -995 1 -650 -2 -872 -12 -910 -18 -74 -62 -129 -123 -156 -47 -20 -67
-22 -236 -23 -174 0 -526 9 -760 19 -257 11 -333 16 -339 19 -4 3 -29 -11 -56
-29 -117 -80 -262 -103 -495 -79 -103 11 -701 11 -1010 0 -124 -5 -270 -10
-325 -12 -133 -4 -572 -4 -660 1 -87 4 -229 14 -315 20 -180 14 -204 21 -247
67 -55 59 -53 -14 -54 1586 0 813 -2 1538 -4 1612 -4 158 -12 379 -22 610 -13
296 -10 349 23 416 36 73 99 123 192 152 86 27 98 30 152 37 52 7 114 22 150
36 33 12 64 18 130 24 30 3 79 7 108 10 96 10 168 41 230 103 29 28 39 32 87
32 31 0 128 -19 232 -46z"/>
<path d="M2339 5306 c-2 -2 -60 -7 -129 -11 -69 -4 -141 -8 -160 -10 -19 -2
-69 -6 -110 -10 -99 -9 -157 -37 -184 -90 -20 -37 -21 -56 -20 -280 1 -304 11
-619 29 -975 7 -152 35 -213 115 -252 43 -21 58 -22 385 -25 187 -1 356 -5
375 -8 19 -3 130 -8 245 -10 232 -4 276 3 330 52 65 59 60 -4 61 815 0 411 0
748 0 748 -1 0 -38 7 -84 15 -45 8 -115 17 -155 20 -39 4 -83 9 -97 12 -28 6
-595 14 -601 9z m101 -461 c110 -11 140 -14 227 -20 48 -3 104 -8 123 -10 19
-2 59 -5 88 -6 39 -2 52 -6 53 -18 0 -9 2 -81 4 -161 1 -80 6 -196 10 -258 12
-186 -21 -260 -132 -302 -54 -20 -72 -21 -343 -18 -402 4 -379 -19 -382 388
-1 216 5 278 28 320 51 93 108 108 324 85z"/>
<path d="M3775 4513 c1 -660 3 -741 17 -768 19 -35 66 -84 82 -86 47 -6 85 -8
266 -14 113 -4 234 -9 270 -10 36 -2 223 -6 416 -10 334 -7 354 -6 395 12 38
17 106 79 110 101 1 4 2 346 3 760 l1 752 -780 0 -780 0 0 -737z m845 312 c41
-2 136 -7 210 -11 213 -10 195 -7 194 -35 -2 -48 -16 -224 -19 -239 -1 -8 -6
-51 -10 -95 -7 -92 -9 -107 -26 -230 -14 -95 -28 -118 -90 -151 -69 -35 -492
-37 -584 -2 -52 20 -107 70 -128 117 -20 43 -21 63 -19 345 1 228 4 301 14
307 12 8 308 4 458 -6z"/>
<path d="M4866 3183 c-2 -2 -236 -5 -519 -7 -582 -3 -552 1 -588 -81 -18 -42
-19 -75 -19 -773 l1 -730 22 -33 c44 -66 27 -64 607 -64 289 0 566 3 615 7 50
4 124 8 165 9 41 1 87 8 101 15 39 19 77 69 90 117 11 40 13 369 4 627 -26
737 -26 748 -44 802 -6 19 -24 46 -39 61 -50 48 -86 56 -246 55 -80 -1 -148
-3 -150 -5z m-92 -449 c38 -12 86 -54 108 -97 20 -40 21 -55 22 -370 l1 -327
-420 0 -420 0 2 362 c1 438 -1 397 21 396 23 -1 258 20 293 27 10 2 65 7 122
11 56 3 103 7 105 9 5 5 143 -4 166 -11z"/>
<path d="M1754 3169 c-2 -4 -12 -33 -22 -65 -14 -48 -17 -90 -16 -219 2 -215
12 -641 20 -850 9 -238 12 -323 13 -374 1 -40 6 -50 50 -92 50 -48 78 -59 196
-74 22 -3 54 -7 70 -10 91 -14 216 -20 435 -20 213 0 316 5 470 20 19 2 76 7
125 11 50 3 101 8 115 9 14 2 31 3 38 4 10 1 12 157 10 790 -3 783 -3 790 -24
818 -43 58 -17 56 -777 57 -385 1 -701 -2 -703 -5z m1062 -519 c76 -62 99
-134 89 -270 -8 -98 -9 -174 -5 -272 3 -69 -19 -110 -70 -135 -30 -14 -76 -17
-300 -20 -295 -4 -306 -2 -386 62 -72 59 -73 65 -72 370 1 149 3 275 5 281 3
7 114 10 356 10 l353 -1 30 -25z"/>
</g>
</svg>
