<svg version="1.0" xmlns="http://www.w3.org/2000/svg"
 width="1533.000000pt" height="1533.000000pt" viewBox="0 0 1533.000000 1533.000000"
 preserveAspectRatio="xMidYMid meet">
<metadata>
Created by potrace 1.11, written by Peter Selinger 2001-2013
</metadata>
<g transform="translate(0.000000,1533.000000) scale(0.100000,-0.100000)"
fill="#000000" stroke="none">
<path d="M201 15275 c34 -42 113 -130 173 -195 28 -30 87 -95 131 -145 44 -49
87 -96 95 -105 8 -9 53 -58 100 -110 47 -51 90 -98 95 -104 6 -6 66 -74 135
-151 69 -76 132 -146 140 -156 8 -9 35 -38 60 -65 25 -27 81 -90 125 -138 44
-49 85 -94 90 -100 6 -6 55 -60 110 -121 54 -60 104 -115 110 -121 5 -6 39
-44 75 -84 36 -40 70 -78 75 -84 6 -6 37 -40 69 -76 33 -36 75 -83 95 -105 56
-61 138 -151 226 -249 44 -49 91 -101 105 -116 14 -15 54 -60 90 -100 36 -40
76 -84 90 -99 14 -14 61 -66 105 -116 44 -49 82 -92 85 -95 7 -7 286 -315 330
-365 19 -21 44 -48 55 -60 11 -12 54 -59 95 -105 41 -46 98 -109 126 -140 45
-48 210 -231 431 -476 39 -43 82 -91 95 -105 81 -90 257 -285 278 -309 8 -9
54 -59 101 -111 47 -52 135 -148 194 -214 60 -66 141 -156 181 -200 40 -44 81
-90 91 -101 10 -12 56 -63 103 -115 47 -51 110 -121 140 -154 47 -52 189 -208
255 -281 11 -12 54 -59 95 -105 41 -46 163 -180 270 -299 107 -118 208 -230
225 -249 16 -18 41 -46 55 -61 88 -96 199 -219 276 -305 49 -55 96 -107 104
-115 8 -8 74 -80 145 -160 72 -80 139 -154 150 -166 21 -22 140 -154 173 -191
19 -23 19 -23 -8 -80 -15 -32 -40 -97 -56 -145 l-28 -88 -41 -1 c-22 -1 -51
-2 -65 -4 -36 -4 -235 -20 -360 -30 -110 -8 -206 -17 -230 -20 -14 -2 -70 -7
-126 -10 -55 -4 -114 -8 -130 -10 -16 -2 -72 -6 -124 -10 -52 -4 -106 -8 -120
-10 -14 -2 -68 -7 -120 -10 -52 -4 -106 -8 -120 -10 -14 -2 -63 -7 -110 -10
-47 -3 -105 -8 -130 -10 -25 -2 -79 -6 -120 -10 -41 -3 -95 -8 -120 -10 -25
-2 -79 -7 -120 -10 -41 -3 -95 -8 -120 -10 -25 -2 -79 -7 -120 -10 -41 -3 -93
-8 -115 -10 -22 -2 -80 -7 -130 -10 -49 -3 -106 -8 -125 -10 -19 -2 -69 -7
-110 -10 -41 -3 -95 -8 -120 -10 -25 -3 -79 -7 -120 -10 -41 -3 -100 -8 -130
-10 -30 -3 -84 -8 -120 -10 -36 -3 -92 -8 -125 -10 -33 -3 -85 -7 -115 -10
-64 -6 -147 -13 -245 -20 -38 -3 -90 -8 -115 -10 -25 -3 -81 -7 -125 -10 -43
-3 -93 -8 -110 -10 -16 -2 -70 -7 -120 -10 -49 -3 -108 -8 -130 -10 -22 -3
-71 -7 -110 -10 -150 -11 -211 -16 -245 -20 -19 -2 -73 -7 -120 -10 -47 -4
-107 -9 -135 -11 -27 -2 -77 -6 -110 -9 -60 -5 -177 -15 -225 -20 -14 -2 -40
-3 -59 -4 -19 -1 -32 -3 -30 -5 4 -4 53 -7 369 -21 58 -3 148 -7 200 -10 104
-5 277 -13 440 -20 58 -3 146 -7 195 -10 86 -4 167 -8 445 -20 69 -3 154 -8
190 -10 74 -5 268 -14 635 -30 66 -2 163 -7 215 -10 90 -5 163 -8 430 -20 63
-3 156 -7 205 -10 200 -10 305 -16 410 -20 155 -6 336 -15 430 -20 44 -2 141
-7 215 -10 74 -3 173 -8 220 -10 47 -2 141 -7 210 -10 69 -4 160 -8 204 -10
43 -2 144 -7 225 -11 146 -6 171 -12 171 -43 0 -9 15 -50 33 -92 l33 -76 -80
-85 c-45 -47 -146 -154 -226 -238 -80 -85 -188 -199 -241 -254 -52 -56 -129
-137 -171 -181 -42 -44 -106 -111 -142 -150 -37 -38 -90 -95 -118 -125 -28
-30 -116 -122 -194 -205 -78 -82 -164 -172 -189 -200 -26 -27 -107 -113 -180
-190 -73 -77 -150 -158 -170 -180 -21 -22 -72 -76 -114 -120 -95 -101 -353
-373 -416 -440 -70 -75 -177 -188 -289 -305 -56 -58 -158 -167 -229 -241 -70
-75 -151 -160 -180 -191 -28 -30 -107 -113 -174 -184 -262 -278 -281 -298
-523 -553 -85 -90 -173 -182 -195 -205 -22 -24 -95 -101 -162 -172 -67 -71
-145 -154 -175 -185 -60 -63 -296 -313 -353 -374 -20 -22 -103 -109 -184 -194
-80 -85 -165 -175 -189 -200 -75 -80 -296 -313 -332 -351 -19 -20 -71 -75
-114 -121 -87 -92 -193 -204 -331 -349 -49 -53 -160 -169 -245 -259 -85 -91
-171 -181 -190 -201 -276 -292 -342 -361 -414 -440 -35 -38 -36 -41 -7 -15 19
17 44 39 56 50 36 33 186 169 239 216 27 24 57 51 66 59 9 8 58 53 110 100 52
47 101 92 110 100 22 20 177 160 201 181 11 10 61 55 112 101 82 75 142 129
262 237 22 20 90 81 150 135 61 55 115 104 120 110 6 6 51 47 100 91 50 44
113 101 140 126 28 25 104 95 170 154 66 59 138 124 160 144 22 20 85 77 140
126 55 50 102 92 105 95 3 3 77 70 165 150 88 79 167 151 176 159 9 9 34 31
55 50 21 19 64 57 94 85 31 28 98 89 150 136 51 47 104 94 116 105 12 11 55
49 95 85 40 36 98 88 128 116 73 66 101 92 142 129 19 16 104 93 189 170 85
78 172 156 194 175 21 19 51 46 66 60 15 14 67 61 116 105 48 44 111 101 138
126 28 25 103 92 166 149 63 57 135 122 160 144 25 23 95 87 155 141 61 55
112 102 115 105 3 3 68 61 145 130 77 68 147 131 155 140 8 8 60 55 115 104
55 50 105 95 110 100 6 6 48 45 95 86 47 41 110 98 140 127 30 28 66 61 80 73
14 12 61 54 105 94 44 40 107 97 140 126 33 29 62 56 65 59 3 3 46 42 95 86
50 44 92 82 95 85 6 6 199 181 259 235 24 22 49 45 55 50 6 6 81 73 166 149
85 77 160 144 165 150 6 6 30 29 55 51 77 68 220 197 279 252 31 29 59 53 64
53 4 0 38 -15 75 -34 37 -18 96 -44 132 -56 36 -13 66 -24 67 -25 6 -3 13 -78
28 -285 3 -30 7 -84 10 -120 12 -134 14 -167 20 -240 3 -41 8 -91 10 -110 2
-19 7 -75 10 -125 3 -49 8 -101 10 -115 2 -14 6 -65 10 -115 3 -49 8 -110 10
-135 2 -25 7 -79 10 -120 3 -41 8 -95 10 -120 2 -25 7 -79 10 -120 3 -41 8
-95 10 -120 2 -25 7 -79 10 -120 4 -41 8 -95 10 -120 2 -25 6 -79 10 -120 3
-41 8 -95 10 -120 3 -25 7 -79 10 -120 3 -41 8 -91 10 -110 2 -19 7 -78 10
-130 4 -52 8 -106 10 -120 2 -14 7 -64 10 -111 3 -47 7 -103 9 -125 2 -21 7
-75 10 -119 4 -44 9 -100 11 -125 2 -25 7 -76 10 -115 3 -38 7 -95 10 -125 2
-30 7 -82 9 -115 3 -33 8 -89 11 -125 3 -36 8 -92 10 -125 3 -33 7 -87 10
-120 3 -33 7 -85 10 -115 2 -30 6 -86 10 -125 3 -38 8 -99 10 -135 3 -36 7
-83 10 -105 2 -22 6 -74 10 -115 3 -41 8 -102 11 -135 7 -84 11 -137 19 -230
3 -44 10 -129 15 -190 6 -60 12 -141 16 -180 10 -128 11 -135 16 -141 3 -3 5
8 5 23 0 32 13 341 18 423 2 30 7 120 10 200 3 80 8 181 10 225 8 141 15 287
20 415 3 69 7 163 10 210 3 47 7 137 10 200 8 198 18 409 30 635 3 55 7 152
10 215 3 63 7 158 10 210 2 52 7 149 10 215 3 66 8 161 10 210 3 50 7 144 10
210 3 66 7 165 10 220 3 55 7 154 11 220 3 66 7 152 9 190 2 39 7 133 10 210
3 77 7 176 10 220 5 97 16 322 20 425 2 41 6 140 10 220 4 80 8 169 9 198 l1
53 55 16 c30 9 89 30 131 48 l76 33 29 -27 c24 -21 176 -161 433 -396 24 -22
63 -58 86 -80 24 -22 63 -58 86 -79 62 -56 259 -237 285 -261 12 -11 68 -63
124 -115 57 -52 132 -122 167 -154 35 -32 73 -68 86 -78 19 -17 144 -132 237
-218 15 -14 71 -65 125 -115 55 -49 128 -117 164 -151 36 -33 93 -85 126 -115
33 -29 71 -65 86 -79 14 -14 66 -62 115 -106 49 -45 103 -95 120 -110 17 -16
75 -69 129 -119 54 -49 110 -101 125 -115 15 -14 74 -68 130 -120 57 -52 131
-120 164 -151 34 -30 122 -111 196 -179 74 -68 140 -129 146 -135 33 -30 205
-188 221 -203 11 -9 71 -64 134 -122 62 -58 143 -132 179 -165 66 -60 259
-238 310 -285 14 -14 49 -45 76 -70 27 -25 101 -93 164 -151 63 -58 176 -161
250 -229 74 -68 140 -128 145 -134 6 -6 57 -54 115 -106 58 -52 107 -97 110
-100 3 -3 61 -57 130 -120 117 -108 161 -149 235 -216 54 -49 227 -208 249
-229 12 -11 102 -94 201 -185 99 -91 200 -184 225 -207 25 -23 55 -50 67 -61
12 -10 73 -66 135 -123 62 -57 140 -129 173 -159 33 -30 67 -62 75 -70 8 -8
62 -58 120 -110 57 -52 114 -104 125 -115 12 -11 70 -65 130 -120 60 -55 136
-126 169 -157 34 -31 62 -55 64 -53 2 2 -6 15 -19 28 -20 20 -121 128 -263
281 -15 17 -54 58 -85 92 -31 33 -108 116 -171 184 -63 68 -128 138 -145 156
-16 17 -55 58 -85 90 -30 33 -105 113 -167 179 -61 66 -128 139 -150 161 -21
23 -81 88 -133 144 -52 57 -111 120 -130 140 -39 42 -225 241 -316 339 -32 35
-75 81 -94 101 -19 21 -80 86 -135 145 -55 60 -113 122 -130 140 -16 17 -79
85 -140 150 -60 65 -123 133 -140 150 -26 28 -189 203 -265 285 -70 75 -239
257 -265 285 -16 17 -79 85 -140 150 -60 65 -117 126 -125 135 -40 43 -259
278 -289 309 -60 64 -235 253 -260 280 -21 23 -154 166 -274 295 -22 22 -64
68 -94 101 -31 33 -84 89 -117 125 -34 36 -90 97 -126 135 -36 39 -121 130
-190 204 -69 73 -133 142 -142 153 -9 11 -66 72 -126 136 -60 64 -124 133
-142 152 -53 58 -250 269 -321 345 -37 38 -77 82 -90 96 -35 39 -220 238 -249
269 -14 14 -52 55 -85 90 -33 36 -115 124 -181 195 -67 72 -136 146 -154 165
-18 19 -78 84 -134 144 -280 300 -341 367 -340 374 0 4 19 45 41 92 23 47 49
109 59 138 18 49 21 52 54 53 36 1 52 2 275 13 192 11 253 14 356 20 52 3 137
8 189 11 52 3 140 7 195 10 93 5 144 8 360 20 97 5 258 14 380 20 50 3 126 7
170 10 44 2 130 7 190 10 61 3 146 7 190 10 44 3 125 7 180 10 55 3 136 7 180
10 44 2 134 7 200 11 66 3 152 7 190 9 183 10 266 15 335 19 41 3 134 8 205
12 195 9 250 12 360 18 55 4 145 9 200 11 55 3 134 8 175 10 41 3 122 7 180
10 58 2 141 7 185 10 153 9 488 27 533 29 17 0 32 4 32 8 0 4 -8 6 -17 6 -18
-1 -206 11 -273 17 -19 2 -78 6 -130 10 -52 3 -111 8 -130 10 -19 2 -73 7
-120 10 -47 3 -110 8 -140 11 -30 2 -91 7 -135 10 -44 3 -93 7 -110 8 -16 2
-77 6 -135 11 -58 4 -121 8 -140 10 -19 2 -78 6 -130 10 -52 3 -111 8 -130 10
-19 3 -78 7 -130 10 -52 3 -111 8 -131 10 -20 2 -78 7 -130 10 -52 3 -110 7
-129 10 -19 2 -80 7 -135 10 -55 4 -116 9 -135 10 -19 2 -73 7 -120 10 -47 3
-110 8 -140 11 -30 2 -86 7 -125 9 -38 3 -95 7 -125 10 -54 4 -104 8 -280 20
-47 4 -98 8 -115 10 -16 2 -75 7 -130 11 -55 4 -116 8 -135 9 -19 2 -80 6
-135 10 -55 3 -111 8 -125 10 -14 2 -72 7 -130 10 -58 3 -116 8 -130 10 -14 2
-72 7 -130 10 -58 3 -118 8 -135 10 -16 3 -68 7 -114 10 -47 3 -112 7 -145 10
-58 5 -107 8 -276 20 -41 3 -93 8 -115 10 -22 2 -87 7 -144 11 -101 6 -142 10
-145 16 -1 2 -12 37 -25 78 -13 41 -42 116 -66 166 l-42 91 45 49 c26 27 73
78 106 114 33 36 80 88 106 115 25 28 97 106 160 175 63 69 131 143 152 165
20 22 49 54 64 70 15 17 72 79 128 140 56 60 126 137 156 170 30 33 64 69 75
80 11 12 42 45 69 75 28 30 77 84 110 120 34 36 102 110 151 164 50 55 101
111 115 126 14 15 63 69 110 120 47 51 99 107 115 124 17 18 71 77 120 131 50
54 105 115 123 134 60 64 115 124 217 236 55 61 111 122 125 136 14 15 66 71
115 125 50 55 117 128 151 164 33 36 78 85 100 109 21 24 55 60 74 81 61 65
142 154 230 250 47 51 94 103 105 114 11 12 121 131 245 266 123 135 241 263
261 285 21 22 46 50 56 61 10 12 59 66 110 120 50 55 104 113 119 129 15 17
52 57 83 91 31 33 99 107 151 164 52 56 106 115 120 130 14 15 68 74 120 131
52 57 126 137 165 179 38 41 86 93 106 115 20 22 64 69 97 105 34 36 71 77 82
90 12 14 65 72 118 130 53 57 126 136 162 175 35 38 67 72 70 75 3 3 25 28 50
55 25 28 93 102 151 165 58 63 117 127 130 141 13 15 65 71 114 125 50 53 99
107 110 120 24 26 186 203 200 218 6 6 69 74 140 151 71 77 174 189 229 249
134 145 128 139 151 167 17 20 -69 -55 -126 -111 -9 -8 -65 -60 -124 -115 -60
-55 -125 -116 -146 -135 -20 -19 -61 -57 -91 -84 -29 -28 -84 -79 -123 -115
-38 -37 -126 -118 -194 -181 -147 -136 -154 -143 -306 -285 -65 -60 -129 -121
-144 -134 -14 -13 -77 -72 -140 -130 -63 -58 -126 -117 -140 -130 -36 -33
-131 -122 -291 -272 -74 -69 -148 -138 -165 -153 -27 -25 -171 -158 -259 -241
-18 -16 -83 -77 -146 -135 -62 -58 -132 -123 -155 -145 -77 -72 -249 -232
-285 -265 -45 -41 -131 -122 -295 -274 -71 -67 -154 -144 -185 -173 -30 -28
-75 -70 -100 -93 -25 -23 -89 -83 -144 -134 -54 -50 -116 -107 -136 -126 -107
-100 -381 -356 -440 -410 -19 -18 -86 -80 -148 -138 -62 -58 -121 -112 -131
-121 -10 -9 -76 -71 -147 -137 -71 -67 -142 -134 -159 -149 -41 -37 -220 -203
-276 -256 -25 -24 -91 -85 -145 -135 -54 -51 -117 -109 -139 -129 -22 -21 -67
-63 -100 -94 -34 -31 -117 -108 -185 -172 -69 -64 -141 -131 -160 -149 -19
-18 -84 -78 -144 -134 -165 -153 -176 -163 -292 -271 -59 -55 -122 -113 -139
-130 -18 -16 -83 -77 -145 -135 -62 -58 -127 -118 -145 -135 -58 -55 -247
-230 -277 -257 l-31 -27 -39 20 c-21 11 -84 35 -140 54 -68 23 -104 40 -109
52 -3 10 -7 52 -8 93 -2 41 -4 100 -6 130 -2 30 -7 111 -10 180 -3 69 -8 145
-10 170 -2 25 -7 110 -10 190 -4 80 -8 170 -10 200 -2 30 -7 114 -10 185 -4
72 -8 152 -10 178 -2 27 -7 106 -10 175 -3 70 -8 159 -10 197 -7 118 -14 255
-20 370 -3 61 -7 146 -10 190 -5 78 -8 144 -20 375 -3 63 -8 149 -11 190 -8
142 -17 315 -29 550 -3 52 -7 136 -10 185 -6 105 -13 229 -20 370 -3 55 -7
136 -10 180 -2 44 -7 125 -10 180 -5 98 -8 160 -20 395 -4 63 -8 144 -10 180
-2 36 -6 117 -9 180 -11 214 -25 331 -27 214 0 -49 -2 -79 -14 -224 -5 -72 -8
-111 -20 -265 -3 -38 -7 -95 -10 -125 -2 -30 -7 -93 -10 -140 -3 -47 -8 -105
-10 -130 -2 -25 -7 -83 -10 -130 -3 -47 -8 -105 -10 -130 -3 -25 -7 -76 -10
-115 -6 -90 -15 -207 -20 -270 -3 -27 -7 -86 -10 -130 -3 -44 -7 -105 -10
-135 -2 -30 -7 -91 -10 -135 -3 -44 -7 -102 -10 -130 -3 -27 -7 -86 -10 -130
-3 -44 -8 -100 -10 -125 -3 -25 -7 -85 -11 -135 -3 -49 -7 -110 -9 -135 -2
-25 -7 -83 -10 -130 -4 -47 -8 -107 -10 -135 -3 -27 -7 -84 -10 -125 -3 -41
-8 -102 -11 -135 -3 -33 -7 -87 -9 -120 -4 -62 -12 -169 -20 -265 -3 -30 -7
-89 -10 -130 -3 -41 -7 -102 -10 -135 -3 -33 -7 -91 -10 -130 -3 -38 -8 -97
-11 -130 -2 -33 -7 -85 -9 -115 -2 -30 -6 -93 -10 -140 -3 -47 -7 -107 -10
-135 -2 -27 -7 -88 -10 -135 -3 -47 -8 -103 -10 -125 -2 -22 -7 -83 -11 -135
-3 -52 -8 -111 -9 -130 -2 -19 -7 -80 -11 -135 -4 -55 -8 -111 -9 -125 -2 -14
-3 -41 -4 -61 -1 -31 -5 -38 -28 -44 -33 -8 -70 -23 -178 -74 l-80 -37 -31 30
c-45 45 -209 201 -370 353 -76 72 -162 153 -190 180 -28 26 -116 109 -194 183
-79 74 -191 180 -248 235 -58 55 -120 114 -137 130 -18 17 -95 89 -171 161
-77 72 -155 146 -174 164 -19 18 -108 102 -198 188 -89 85 -171 162 -181 171
-10 9 -87 81 -171 161 -84 80 -172 163 -195 185 -23 22 -114 108 -201 190
-181 172 -176 167 -360 341 -76 73 -159 151 -184 174 -86 80 -334 315 -381
360 -25 25 -82 78 -125 119 -44 41 -144 136 -224 212 -80 76 -168 159 -196
186 -29 26 -114 107 -190 179 -77 73 -159 151 -184 174 -59 55 -313 295 -360
340 -82 78 -369 350 -423 401 -32 30 -87 81 -121 114 -34 33 -98 94 -142 135
-123 117 -413 391 -454 430 -20 19 -100 95 -178 168 -77 74 -156 147 -174 164
-18 17 -76 72 -129 122 -107 103 -386 366 -433 410 -17 15 -65 60 -106 100
-41 39 -63 58 -49 41z"/>
</g>
</svg>
