<svg version="1.1" id="Layer_1" xmlns="http://www.w3.org/2000/svg" xmlns:xlink="http://www.w3.org/1999/xlink" x="0px" y="0px"
	 viewBox="0 0 244.7 42.5" style="enable-background:new 0 0 244.7 42.5;" xml:space="preserve">
<style type="text/css">
	.st0{font-family:'CenturyGothicPro';}
	.st1{font-size:14.288px;}
	.st2{font-size:12.646px;}
	.st3{fill:none;stroke:#000000;stroke-width:0.5;}
</style>
<path d="M7.6,6.2c2.8,0,5.6,0,8.4-0.1c7.1,0,14.1,0,21.2,0c0.5,0,0.9,0,1.5,0c0,10.3,0,20.5,0,30.8c-10.4,0-20.7,0-31,0
	C7.6,26.7,7.6,16.5,7.6,6.2z M36.6,8.1c-3,0-5.9,0-8.8,0c-2.5,0-4.9-0.2-7.4-0.2c-0.3,0-0.8-0.1-0.9,0c-0.8,0.9-1.5,0.3-2.3,0.2
	c-0.6-0.1-1.5-0.4-1.7-0.2c-0.8,1-1.9,0.6-2.8,0.9C12.3,9,11.8,9,11.4,9.1C10,9.4,9.5,10,9.5,11.4c0.1,2.3,0.2,4.7,0.2,7
	c0,5.1,0,10.2,0,15.3c0,1,0.4,1.4,1.3,1.4c1.2,0.1,2.5,0.2,3.7,0.2c2.9,0,5.9-0.2,8.8-0.2c1.5,0,3.1,0.6,4.5-0.5
	c0.1-0.1,0.2,0,0.4,0c2.2,0.1,4.5,0.2,6.7,0.2c1.2,0,1.6-0.6,1.6-1.8c0-3.1,0-6.1,0-9.2C36.6,18.7,36.6,13.6,36.6,8.1z"/>
<path d="M12.6,23.2c2.7,0,5.3,0,7.9,0c0.9,0,0.9,0.6,0.9,1.2c0,2.8,0,5.6,0,8.5c-1.4,0.1-2.9,0.3-4.4,0.3c-1.2,0-2.4-0.1-3.5-0.3
	c-0.3,0-0.8-0.4-0.9-0.7c-0.1-2.8-0.2-5.5-0.2-8.3C12.5,23.6,12.6,23.3,12.6,23.2z M14.5,26.1c0,1.1-0.1,2.2,0,3.3
	c0,0.3,0.6,0.8,1,0.9c0.9,0.1,1.9,0,2.9,0c0.8,0,1-0.5,0.9-1.1c-0.2-1.1,0.6-2.3-0.7-3.1c-0.1,0-0.2,0-0.2,0
	C17.2,26.1,16,26.1,14.5,26.1z"/>
<path d="M30.3,33c-1.7,0-3.4,0-5.1,0c-0.7,0-1-0.3-1-0.9c0-2.6,0-5.2,0-7.9c0-0.8,0.4-1.1,1.2-1c2.2,0,4.4,0,6.7-0.1
	c1,0,1.3,0.6,1.3,1.3c0.1,2.4,0.2,4.7,0.2,7.1c0,1-0.4,1.5-1.4,1.4C31.5,32.9,30.9,33,30.3,33z M26.1,26c0,1.6,0,2.9,0,4.4
	c1.7,0,3.2,0,4.9,0c0-1.1-0.1-2.1,0-3.1c0.1-1-0.4-1.6-1.2-1.6C28.6,25.7,27.4,25.9,26.1,26z"/>
<path d="M24.4,11.2c3.1,0,6,0,9.1,0c0,3,0,5.9,0,8.7c0,0.3-0.6,0.8-1,0.8c-2.5,0-4.9-0.1-7.4-0.2c-0.3,0-0.7-0.5-0.7-0.9
	C24.4,16.9,24.4,14.1,24.4,11.2z M26.6,13.5c0,1.3-0.1,2.5,0,3.6c0,0.4,0.6,0.9,1,1c1,0.1,2,0.1,3,0c0.2,0,0.6-0.3,0.7-0.5
	c0.2-1.3,0.3-2.6,0.4-3.9C29.9,13.6,28.3,13.5,26.6,13.5z"/>
<path d="M21.5,11.1c0,2.9,0,5.8,0,8.6c0,0.3-0.6,0.8-1,0.8c-1.1,0.1-2.3,0-3.4-0.1c-1,0-2.1,0-3.1,0c-0.8,0-1.2-0.4-1.3-1.2
	c-0.1-2.3-0.2-4.7-0.2-7c0-0.5,0.1-1.1,0.8-1.2C16.1,10.7,18.9,10.6,21.5,11.1z M19.5,13.7c-1.4-0.1-2.5-0.2-3.6-0.3
	c-0.8-0.1-1.3,0.4-1.3,1.1c-0.1,0.9,0,1.8,0,2.7c0,0.6,0.3,0.9,1,0.9c0.8,0,1.7,0,2.5,0c0.9,0,1.5-0.4,1.5-1.4
	C19.5,15.7,19.5,14.7,19.5,13.7z"/>
<text transform="matrix(1 0 0 1 46.6104 16.3772)" class="st0 st1">WILLIAM SIEGAL GALLERY</text>
<text transform="matrix(1 0 0 1 46.6104 36.7781)" class="st0 st2">ANCIENT OBJECTS &amp; TEXTILES</text>
<line class="st3" x1="47.3" y1="21.6" x2="236.8" y2="21.6"/>
</svg>
