<?xml version="1.0" encoding="utf-8"?>
<!-- Generator: Adobe Illustrator 26.0.1, SVG Export Plug-In . SVG Version: 6.00 Build 0)  -->
<svg version="1.1" id="Layer_1" xmlns="http://www.w3.org/2000/svg" xmlns:xlink="http://www.w3.org/1999/xlink" x="0px" y="0px"
	 viewBox="0 0 244.7 42.5" style="enable-background:new 0 0 244.7 42.5;" xml:space="preserve">
<style type="text/css">
	.st0{enable-background:new    ;}
</style>
<path d="M7.6,6.2c2.8,0,5.6,0,8.4-0.1c7.1,0,14.1,0,21.2,0c0.5,0,0.9,0,1.5,0c0,10.3,0,20.5,0,30.8c-10.4,0-20.7,0-31,0
	C7.6,26.7,7.6,16.5,7.6,6.2z M36.6,8.1c-3,0-5.9,0-8.8,0c-2.5,0-4.9-0.2-7.4-0.2c-0.3,0-0.8-0.1-0.9,0c-0.8,0.9-1.5,0.3-2.3,0.2
	c-0.6-0.1-1.5-0.4-1.7-0.2c-0.8,1-1.9,0.6-2.8,0.9C12.3,9,11.8,9,11.4,9.1C10,9.4,9.5,10,9.5,11.4c0.1,2.3,0.2,4.7,0.2,7
	c0,5.1,0,10.2,0,15.3c0,1,0.4,1.4,1.3,1.4c1.2,0.1,2.5,0.2,3.7,0.2c2.9,0,5.9-0.2,8.8-0.2c1.5,0,3.1,0.6,4.5-0.5
	c0.1-0.1,0.2,0,0.4,0c2.2,0.1,4.5,0.2,6.7,0.2c1.2,0,1.6-0.6,1.6-1.8c0-3.1,0-6.1,0-9.2C36.6,18.7,36.6,13.6,36.6,8.1z"/>
<path d="M12.6,23.2c2.7,0,5.3,0,7.9,0c0.9,0,0.9,0.6,0.9,1.2c0,2.8,0,5.6,0,8.5C20,33,18.5,33.2,17,33.2c-1.2,0-2.4-0.1-3.5-0.3
	c-0.3,0-0.8-0.4-0.9-0.7c-0.1-2.8-0.2-5.5-0.2-8.3C12.5,23.6,12.6,23.3,12.6,23.2z M14.5,26.1c0,1.1-0.1,2.2,0,3.3
	c0,0.3,0.6,0.8,1,0.9c0.9,0.1,1.9,0,2.9,0c0.8,0,1-0.5,0.9-1.1c-0.2-1.1,0.6-2.3-0.7-3.1c-0.1,0-0.2,0-0.2,0
	C17.2,26.1,16,26.1,14.5,26.1z"/>
<path d="M30.3,33c-1.7,0-3.4,0-5.1,0c-0.7,0-1-0.3-1-0.9c0-2.6,0-5.2,0-7.9c0-0.8,0.4-1.1,1.2-1c2.2,0,4.4,0,6.7-0.1
	c1,0,1.3,0.6,1.3,1.3c0.1,2.4,0.2,4.7,0.2,7.1c0,1-0.4,1.5-1.4,1.4C31.5,32.9,30.9,33,30.3,33z M26.1,26c0,1.6,0,2.9,0,4.4
	c1.7,0,3.2,0,4.9,0c0-1.1-0.1-2.1,0-3.1s-0.4-1.6-1.2-1.6C28.6,25.7,27.4,25.9,26.1,26z"/>
<path d="M24.4,11.2c3.1,0,6,0,9.1,0c0,3,0,5.9,0,8.7c0,0.3-0.6,0.8-1,0.8c-2.5,0-4.9-0.1-7.4-0.2c-0.3,0-0.7-0.5-0.7-0.9
	C24.4,16.9,24.4,14.1,24.4,11.2z M26.6,13.5c0,1.3-0.1,2.5,0,3.6c0,0.4,0.6,0.9,1,1c1,0.1,2,0.1,3,0c0.2,0,0.6-0.3,0.7-0.5
	c0.2-1.3,0.3-2.6,0.4-3.9C29.9,13.6,28.3,13.5,26.6,13.5z"/>
<path d="M21.5,11.1c0,2.9,0,5.8,0,8.6c0,0.3-0.6,0.8-1,0.8c-1.1,0.1-2.3,0-3.4-0.1c-1,0-2.1,0-3.1,0c-0.8,0-1.2-0.4-1.3-1.2
	c-0.1-2.3-0.2-4.7-0.2-7c0-0.5,0.1-1.1,0.8-1.2C16.1,10.7,18.9,10.6,21.5,11.1z M19.5,13.7c-1.4-0.1-2.5-0.2-3.6-0.3
	c-0.8-0.1-1.3,0.4-1.3,1.1c-0.1,0.9,0,1.8,0,2.7c0,0.6,0.3,0.9,1,0.9c0.8,0,1.7,0,2.5,0c0.9,0,1.5-0.4,1.5-1.4
	C19.5,15.7,19.5,14.7,19.5,13.7z"/>
<g class="st0">
	<path d="M47.3,6.1h1.1l2.1,7.4l2.9-7.4h0.2l2.9,7.4l2.1-7.4h1l-2.9,10.3h-0.2l-3-7.8l-3.1,7.8h-0.2L47.3,6.1z"/>
	<path d="M61.4,6.1h1v10.3h-1V6.1z"/>
	<path d="M64.8,6.1h1v9.3h3.9v1h-5V6.1z"/>
	<path d="M71.4,6.1h1v9.3h3.9v1h-5V6.1z"/>
	<path d="M77.9,6.1h1v10.3h-1V6.1z"/>
	<path d="M85.5,6.1l4.8,10.3h-1.1L87.5,13h-4.4l-1.6,3.4h-1.1l4.9-10.3H85.5z M85.3,8.3L83.6,12h3.5L85.3,8.3z"/>
	<path d="M91.4,16.4l1.5-10.3H93l4.2,8.4l4.1-8.4h0.2l1.5,10.3h-1l-1-7.3l-3.6,7.3H97L93.4,9l-1,7.4H91.4z"/>
	<path d="M112.9,8.2c-0.6-0.7-1-1.3-1.9-1.3c-0.9,0-1.4,0.6-1.4,1.3c0,0.6,0.3,1.1,0.9,1.6c1.9,1.4,3.3,2.4,3.3,4.1
		c0,1.4-1.2,2.8-2.9,2.8c-1.4,0-2.3-0.8-3.1-2.2l0.9-0.5c0.6,1.1,1.4,1.7,2.1,1.7c1.1,0,1.9-0.8,1.9-1.7c0-1.1-1.1-1.8-3.4-3.7
		c-0.5-0.4-0.9-1.2-0.9-2c0-1.4,1.1-2.4,2.5-2.4c1.3,0,2,0.8,2.7,1.7L112.9,8.2z"/>
	<path d="M115.9,6.1h1v10.3h-1V6.1z"/>
	<path d="M119.3,6.1h5.9v1h-4.8v3.2h4.8v1h-4.8v4h4.8v1h-5.9V6.1z"/>
	<path d="M137.4,11.4c0,3.3-2.1,5.2-5.2,5.2c-3.6,0-5.8-2.5-5.8-5.4c0-2.9,2.3-5.4,5.6-5.4c1.9,0,3.3,0.7,4.7,2L136,8.6
		c-1.2-1.1-2.6-1.7-3.9-1.7c-2.5,0-4.6,1.9-4.6,4.4c0,2.4,2,4.5,4.7,4.5c1.9,0,3.7-1.2,4-3.2H133v-1H137.4z"/>
	<path d="M143.6,6.1l4.8,10.3h-1.1l-1.6-3.4h-4.4l-1.6,3.4h-1.1l4.9-10.3H143.6z M143.5,8.3l-1.8,3.7h3.5L143.5,8.3z"/>
	<path d="M150,6.1h1v9.3h3.9v1h-5V6.1z"/>
	<path d="M171,11.4c0,3.3-2.1,5.2-5.2,5.2c-3.6,0-5.8-2.5-5.8-5.4c0-2.9,2.3-5.4,5.6-5.4c1.9,0,3.3,0.7,4.7,2l-0.8,0.7
		c-1.2-1.1-2.6-1.7-3.9-1.7c-2.5,0-4.6,1.9-4.6,4.4c0,2.4,2,4.5,4.7,4.5c1.9,0,3.7-1.2,4-3.2h-3.3v-1H171z"/>
	<path d="M177.2,6.1l4.8,10.3h-1.1l-1.6-3.4h-4.4l-1.6,3.4h-1.1l4.9-10.3H177.2z M177.1,8.3l-1.8,3.7h3.5L177.1,8.3z"/>
	<path d="M183.6,6.1h1v9.3h3.9v1h-5V6.1z"/>
	<path d="M190.2,6.1h1v9.3h3.9v1h-5V6.1z"/>
	<path d="M196.8,6.1h5.9v1h-4.8v3.2h4.8v1h-4.8v4h4.8v1h-5.9V6.1z"/>
	<path d="M204.5,6.1h2.4c1.1,0,1.9,0.1,2.4,0.3c1.1,0.4,1.7,1.3,1.7,2.5c0,0.5-0.1,0.8-0.3,1.3c-0.5,1.1-1.6,1.5-3.3,1.5l3.7,4.8
		h-1.3l-3.7-4.8h-0.6v4.8h-1V6.1z M205.5,7.1v3.5c0.6,0,1.2,0,1.7,0c0.9,0,1.6-0.1,2-0.4c0.4-0.3,0.6-0.8,0.6-1.3
		c0-1-0.7-1.7-2.2-1.7H205.5z"/>
	<path d="M215.3,11.5L212,6.1h1.2l2.6,4.2l2.6-4.2h1.2l-3.3,5.4v4.9h-1V11.5z"/>
</g>
<g class="st0">
	<path d="M51.4,27.7l4.2,9.1h-1l-1.4-3h-3.9l-1.4,3h-1l4.3-9.1H51.4z M51.3,29.6l-1.6,3.3h3.1L51.3,29.6z"/>
	<path d="M57.1,36.8v-9.1h0.2l6,7v-7h0.9v9.1H64l-6-6.9v6.9H57.1z"/>
	<path d="M74.2,29.9c-0.8-1-1.9-1.6-3.2-1.6c-2.2,0-4,1.6-4,3.9c0,2.3,1.7,3.9,4,3.9c1.3,0,2.3-0.5,3.2-1.5l0.7,0.5
		c-0.9,1.2-2.3,1.8-4,1.8c-3,0-4.9-2.1-4.9-4.8c0-2.7,2.1-4.7,4.9-4.7c1.7,0,3.1,0.7,4,1.9L74.2,29.9z"/>
	<path d="M76.6,27.7h0.9v9.1h-0.9V27.7z"/>
	<path d="M79.6,27.7h5.2v0.9h-4.3v2.8h4.3v0.9h-4.3v3.6h4.3v0.9h-5.2V27.7z"/>
	<path d="M86.4,36.8v-9.1h0.2l6,7v-7h0.9v9.1h-0.2l-6-6.9v6.9H86.4z"/>
	<path d="M94.8,28.6v-0.9h5v0.9h-2v8.2h-0.9v-8.2H94.8z"/>
	<path d="M113.8,32.2c0,2.7-2.1,4.8-4.8,4.8c-2.8,0-4.8-2.2-4.8-4.7c0-2.7,2.1-4.8,4.7-4.8C111.7,27.5,113.8,29.5,113.8,32.2z
		 M105.1,32.3c0,2.2,1.8,3.8,3.8,3.8c2.1,0,3.9-1.6,3.9-3.9c0-2.3-1.8-3.9-3.9-3.9C107,28.4,105.1,29.9,105.1,32.3z"/>
	<path d="M115.6,36.8v-9.1h1.9c1.9,0,2.8,0.9,2.8,2.2c0,0.8-0.4,1.5-1.2,1.9c1.3,0.4,1.9,1.2,1.9,2.4c0,1.4-1,2.6-3,2.6H115.6z
		 M116.5,31.5h0.6c0.7,0,1.2-0.1,1.6-0.3c0.4-0.3,0.6-0.7,0.6-1.3c0-0.8-0.6-1.3-1.7-1.3h-1.2V31.5z M116.5,35.9h1.1
		c0.4,0,0.8-0.1,1.1-0.1c0.6-0.1,1.4-0.7,1.4-1.6c0-0.6-0.3-1.2-0.9-1.5c-0.5-0.3-1.2-0.3-2.1-0.3h-0.6V35.9z"/>
	<path d="M122.8,35.3c0.7,0.5,1.2,0.8,1.8,0.8c0.4,0,0.7-0.2,0.9-0.5c0.3-0.4,0.3-0.9,0.3-1.6v-6.4h0.9v6.5c0,0.9-0.1,1.7-0.6,2.2
		c-0.4,0.4-1,0.6-1.6,0.6c-0.9,0-1.6-0.4-2.3-0.9L122.8,35.3z"/>
	<path d="M128.9,27.7h5.2v0.9h-4.3v2.8h4.3v0.9h-4.3v3.6h4.3v0.9h-5.2V27.7z"/>
	<path d="M143.5,29.9c-0.8-1-1.9-1.6-3.2-1.6c-2.2,0-4,1.6-4,3.9c0,2.3,1.7,3.9,4,3.9c1.3,0,2.3-0.5,3.2-1.5l0.7,0.5
		c-0.9,1.2-2.3,1.8-4,1.8c-3,0-4.9-2.1-4.9-4.8c0-2.7,2.1-4.7,4.9-4.7c1.7,0,3.1,0.7,4,1.9L143.5,29.9z"/>
	<path d="M145.1,28.6v-0.9h5v0.9h-2v8.2h-0.9v-8.2H145.1z"/>
	<path d="M154.9,29.5c-0.5-0.6-0.9-1.1-1.7-1.1c-0.8,0-1.2,0.6-1.2,1.2c0,0.5,0.3,1,0.8,1.4c1.7,1.3,3,2.1,3,3.6
		c0,1.3-1.1,2.4-2.6,2.4c-1.3,0-2.1-0.7-2.7-1.9l0.8-0.5c0.5,1,1.2,1.5,1.9,1.5c0.9,0,1.7-0.7,1.7-1.5c0-1-0.9-1.6-3-3.2
		c-0.4-0.3-0.8-1.1-0.8-1.7c0-1.3,1-2.1,2.2-2.1c1.1,0,1.8,0.7,2.4,1.5L154.9,29.5z"/>
	<path d="M163.5,37c-1.5,0-2.3-1-2.3-2.1c0-1.2,0.9-2,2.2-3.1c-0.7-0.9-1.2-1.4-1.2-2.1c0-1,0.9-1.6,2-1.6c1.2,0,2,0.7,2,1.6
		c0,0.8-0.6,1.5-1.6,2.3c1.5,1.6,2.3,2.4,2.3,2.4c0.4-0.3,0.8-0.7,1.1-0.9l0.6,0.7c-0.3,0.3-0.7,0.6-1.1,0.9
		c0.6,0.6,1.2,1.2,1.7,1.8h-1.3c-0.6-0.7-1-1-1.2-1.2C165.8,36.4,164.9,37,163.5,37z M162.1,34.8c0,0.6,0.6,1.3,1.5,1.3
		c0.8,0,1.7-0.5,2.7-1.2c-0.6-0.7-1.4-1.4-2.3-2.4C162.8,33.4,162.1,34,162.1,34.8z M165.3,29.7c0-0.4-0.5-0.8-1.1-0.8
		c-0.5,0-1.1,0.3-1.1,0.8c0,0.4,0.3,0.9,1,1.6C164.9,30.7,165.3,30.1,165.3,29.7z"/>
	<path d="M173.4,28.6v-0.9h5v0.9h-2v8.2h-0.9v-8.2H173.4z"/>
	<path d="M179.7,27.7h5.2v0.9h-4.3v2.8h4.3v0.9h-4.3v3.6h4.3v0.9h-5.2V27.7z"/>
	<path d="M186,27.7h1.1l2.2,3.5l2.2-3.5h1l-2.7,4.4l2.9,4.7h-1.1l-2.4-3.8l-2.4,3.8h-1.1l2.9-4.7L186,27.7z"/>
	<path d="M193.2,28.6v-0.9h5v0.9h-2v8.2h-0.9v-8.2H193.2z"/>
	<path d="M199.4,27.7h0.9v9.1h-0.9V27.7z"/>
	<path d="M202.4,27.7h0.9v8.2h3.5v0.9h-4.4V27.7z"/>
	<path d="M208.2,27.7h5.2v0.9h-4.3v2.8h4.3v0.9h-4.3v3.6h4.3v0.9h-5.2V27.7z"/>
	<path d="M218.5,29.5c-0.5-0.6-0.9-1.1-1.7-1.1c-0.8,0-1.2,0.6-1.2,1.2c0,0.5,0.3,1,0.8,1.4c1.7,1.3,3,2.1,3,3.6
		c0,1.3-1.1,2.4-2.6,2.4c-1.3,0-2.1-0.7-2.7-1.9l0.8-0.5c0.5,1,1.2,1.5,1.9,1.5c0.9,0,1.7-0.7,1.7-1.5c0-1-0.9-1.6-3-3.2
		c-0.4-0.3-0.8-1.1-0.8-1.7c0-1.3,1-2.1,2.2-2.1c1.1,0,1.8,0.7,2.4,1.5L218.5,29.5z"/>
</g>
<g>
	<rect x="47.3" y="21.4" width="189.5" height="0.5"/>
</g>
</svg>
